<svg xmlns="http://www.w3.org/2000/svg">
<metadata>Created by FontForge 20110222 at Tue Apr5 11:32:12 2011
Typeface (c) FontSite Inc., 1996-2008. All Rights Reserved. www.fontsite.com
Modified by fontgen.py at Tue Apr5 11:32:12 2011
</metadata>
<defs>
<font id="webfont" horiz-adv-x="500"><font-face units-per-em="1000" ascent="777" descent="-223"/>
<missing-glyph horiz-adv-x="500"/><glyph unicode=" " horiz-adv-x="250"/><glyph unicode="!" horiz-adv-x="267" d="M111 161l-39 388c-2 23 -4 38 -4 40c-2 35 28 65 66 65c39 0 66 -28 66 -67c0 -9 -1 -27 -3 -43l-41 -383h-45zM67 50c0 37 30 66 68 66c35 0 65 -30 65 -66c0 -37 -30 -67 -66 -67c-37 0 -67 30 -67 67z"/><glyph unicode="&quot;" horiz-adv-x="372" d="M231 399l-17 268h108l-18 -268h-73zM69 399l-18 268h109l-19 -268h-72z"/><glyph unicode="#" horiz-adv-x="567" d="M75 0l31 196h-107l14 89h107l17 110h-107l14 89h106l29 183h100l-29 -183h113l28 183h101l-29 -183h105l-13 -89h-105l-17 -110h106l-14 -89h-106l-31 -196h-101l31 196h-112l-31 -196h-100zM220 285h112l17 110h-112z"/><glyph unicode="$" horiz-adv-x="567" d="M138 12c-56 24 -87 68 -87 121c0 52 29 89 69 89c36 0 61 -26 61 -61c0 -32 -22 -58 -48 -58c-5 0 -10 1 -18 4c15 -24 31 -37 65 -48c20 -7 43 -10 63 -10h9v228c-70 20 -105 34 -132 52c-45 30 -66 70 -66 127c0 116 75 190 198 195v37h53v-37c110 -6 190 -64 190 -138 c0 -43 -29 -75 -68 -75c-33 0 -57 23 -57 56c0 30 16 50 45 55c-11 22 -63 42 -110 42v-220c83 -24 112 -35 140 -53c45 -29 70 -79 70 -137c0 -61 -30 -120 -76 -151c-32 -22 -72 -33 -134 -40v-61h-53v61c-53 3 -84 9 -114 22zM228 391c4 -1 13 -4 24 -8v207 c-40 -7 -58 -14 -76 -30c-20 -18 -32 -46 -32 -75c0 -49 22 -74 84 -94zM305 49c77 15 115 51 115 110c0 34 -17 65 -47 81c-19 11 -33 16 -68 24v-215z"/><glyph unicode="%" horiz-adv-x="719" d="M167 332c-76 0 -121 65 -121 172c0 108 46 173 123 173c29 0 62 -14 80 -34c26 -29 42 -82 42 -140c0 -109 -45 -171 -124 -171zM143 0l398 661h60l-403 -661h-55zM170 371c40 0 57 39 57 131c0 93 -17 134 -56 134c-43 0 -59 -32 -59 -119c0 -107 16 -146 58 -146z M426 162c0 108 46 173 123 173c29 0 62 -14 80 -34c26 -29 42 -82 42 -140c0 -109 -45 -171 -124 -171c-76 0 -121 65 -121 172zM492 175c0 -107 16 -146 59 -146c40 0 57 39 57 131c0 93 -17 134 -57 134c-43 0 -59 -32 -59 -119z"/><glyph unicode="&amp;" horiz-adv-x="735" d="M33 176c0 54 22 102 64 139c21 18 41 29 99 55c-27 49 -39 86 -39 125c0 85 59 140 149 140c80 0 135 -50 135 -123c0 -67 -36 -110 -127 -153c77 -118 95 -144 153 -213c44 65 60 102 60 140c0 25 -13 38 -36 38h-37v53h262v-53h-30c-47 0 -55 -8 -100 -100 c-17 -34 -49 -84 -77 -119c26 -28 55 -43 82 -43c53 0 85 51 85 134h59c-1 -133 -58 -209 -154 -209c-48 0 -86 16 -140 57c-52 -40 -107 -58 -178 -58c-140 0 -230 74 -230 190zM287 406c60 41 82 70 82 109c0 38 -24 64 -60 64c-35 0 -62 -28 -62 -67 c0 -26 15 -66 40 -106zM136 192c0 -81 64 -143 148 -143c41 0 75 11 113 37c-60 67 -75 94 -161 219l-11 16c-64 -38 -89 -74 -89 -129z"/><glyph unicode="&#8217;" horiz-adv-x="267" d="M72 437v44c45 5 83 47 83 91c-12 -11 -22 -15 -39 -15c-34 0 -57 25 -57 61c0 38 29 66 69 66c46 0 79 -42 79 -100c0 -42 -18 -80 -50 -109c-21 -18 -40 -26 -85 -38z"/><glyph unicode="(" horiz-adv-x="357" d="M174 -78c-57 78 -87 187 -87 321c0 159 44 281 132 363c46 43 86 65 145 78v-56c-61 -23 -100 -58 -130 -117c-27 -54 -38 -131 -38 -267c0 -162 15 -245 54 -305c31 -46 60 -70 114 -90v-55c-74 14 -137 57 -190 128z"/><glyph unicode=")" horiz-adv-x="357" d="M123 -34c27 55 38 132 38 268c0 161 -15 244 -54 304c-31 46 -60 70 -114 91v55c74 -15 137 -57 190 -129c57 -78 87 -187 87 -321c0 -158 -44 -280 -132 -363c-46 -43 -86 -64 -145 -77v55c61 23 100 58 130 117z"/><glyph unicode="*" horiz-adv-x="451" d="M152 348c-27 0 -54 25 -54 50c0 15 11 33 26 42l53 34c11 7 16 12 16 18c0 7 -7 11 -19 11c-3 0 -9 0 -14 -1l-47 -6c-4 -1 -8 -1 -11 -1c-33 0 -51 17 -51 47s21 54 48 54c13 0 24 -5 35 -14l44 -39c8 -7 18 -12 23 -12s8 4 8 8c0 3 -2 8 -4 14l-27 72c-2 6 -3 12 -3 19 c0 25 22 44 51 44c30 0 51 -18 51 -44c0 -8 -1 -13 -3 -19l-27 -72c-2 -5 -3 -10 -3 -15c0 -4 3 -7 8 -7s14 5 22 12l44 39c11 9 23 14 35 14c26 0 48 -24 48 -54s-18 -47 -51 -47c-3 0 -7 0 -11 1l-46 6c-6 1 -12 1 -15 1c-12 0 -20 -4 -20 -11c0 -5 4 -10 17 -18l53 -34 c15 -9 26 -27 26 -43c0 -24 -27 -49 -54 -49c-22 0 -36 14 -44 42l-14 50c-6 22 -10 29 -16 28c-7 -1 -12 -9 -17 -28l-13 -50c-7 -27 -22 -42 -44 -42z"/><glyph unicode="+" horiz-adv-x="567" d="M235 128v163h-168v91h168v163h98v-163h167v-91h-167v-163h-98z"/><glyph unicode="," horiz-adv-x="267" d="M59 47c0 39 30 68 69 68c46 0 79 -42 79 -99c0 -80 -54 -139 -137 -151v41c51 9 83 45 85 96c-13 -11 -21 -14 -38 -14c-33 0 -58 26 -58 59z"/><glyph unicode="-" horiz-adv-x="241" d="M0 229v90h241v-90h-241z"/><glyph unicode="." horiz-adv-x="267" d="M67 49c0 36 30 65 67 65c35 0 65 -30 65 -66s-30 -66 -66 -66c-37 0 -66 30 -66 67z"/><glyph unicode="/" horiz-adv-x="330" d="M37 -203h-83l278 870h84z"/><glyph unicode="0" horiz-adv-x="567" d="M281 -13c-144 0 -230 127 -230 339c0 126 25 209 80 265c38 40 95 63 156 63c50 0 101 -18 136 -50c62 -56 93 -148 93 -281c0 -211 -87 -336 -235 -336zM180 134c16 -56 53 -88 103 -88c38 0 76 23 92 56c23 47 28 87 28 232c0 112 -4 157 -18 191c-18 47 -52 71 -98 71 c-51 0 -82 -19 -100 -61c-19 -46 -23 -80 -23 -203c0 -112 3 -153 16 -198z"/><glyph unicode="1" horiz-adv-x="566" d="M114 0v53h75c42 0 56 16 56 63v351h-131v55c90 6 150 53 161 128h72v-534c0 -50 11 -63 56 -63h73v-53h-362z"/><glyph unicode="2" horiz-adv-x="567" d="M49 0v21c0 161 32 200 261 320c51 27 79 71 79 122c0 72 -57 120 -142 120c-72 0 -119 -31 -140 -92c20 11 27 13 41 13c33 0 58 -24 58 -57c0 -41 -29 -70 -70 -70c-50 0 -86 42 -86 100c0 99 97 177 220 177c137 0 232 -80 232 -194c0 -60 -26 -111 -78 -151 c-25 -19 -58 -36 -128 -64c-127 -50 -163 -80 -175 -143c24 22 40 29 69 29c22 0 46 -4 100 -18c69 -17 83 -21 105 -21c48 0 72 37 72 110c0 2 0 11 -1 18h52c0 -11 0 -20 -1 -24c-4 -97 -8 -125 -32 -159c-19 -27 -54 -44 -92 -44c-33 0 -68 9 -118 31 c-83 37 -94 41 -122 41c-18 0 -30 -7 -36 -22c-3 -8 -4 -16 -4 -43h-64z"/><glyph unicode="3" horiz-adv-x="567" d="M93 31c-38 30 -59 71 -59 113c0 51 33 88 79 88c37 0 67 -31 67 -68c0 -39 -26 -62 -71 -62h-4c19 -37 61 -57 123 -57c42 0 79 9 104 25c39 25 63 70 63 119c0 77 -58 125 -151 125c-14 0 -22 -1 -37 -4v59c12 -2 18 -2 25 -2c38 0 75 8 95 21c30 19 50 59 50 97 c0 61 -60 107 -139 107c-51 0 -93 -16 -121 -46h8c37 0 61 -22 61 -57c0 -37 -31 -64 -71 -64c-41 0 -69 33 -69 81c0 85 91 148 213 148c136 0 231 -68 231 -164c0 -68 -42 -115 -130 -144c95 -22 144 -76 144 -157c0 -56 -25 -108 -69 -144c-47 -40 -108 -58 -192 -58 c-66 0 -112 13 -150 44z"/><glyph unicode="4" horiz-adv-x="567" d="M40 187v71l304 392h70v-392h92v-71h-92v-71c0 -50 12 -63 62 -63h30v-53h-303v53h57c38 0 56 20 56 63v71h-276zM112 258h204v264z"/><glyph unicode="5" horiz-adv-x="567" d="M60 137c0 52 32 90 75 90c38 0 67 -27 67 -64c0 -30 -17 -53 -45 -60c-7 -2 -9 -2 -27 -2c21 -35 65 -55 121 -55c94 0 156 71 156 177c0 94 -57 152 -151 152c-52 0 -87 -16 -116 -52h-60l27 327h10c68 -23 120 -33 177 -33c86 0 135 10 190 39l16 -10 c-50 -85 -109 -115 -232 -115c-54 0 -82 3 -112 11l-14 -149c37 31 91 49 147 49c135 0 231 -89 231 -215c0 -78 -37 -152 -98 -195c-42 -30 -93 -45 -154 -45c-122 0 -208 62 -208 150z"/><glyph unicode="6" horiz-adv-x="566" d="M117 67c-40 51 -58 120 -58 220c0 237 96 367 272 367c102 0 176 -50 176 -119c0 -45 -31 -79 -72 -79c-38 0 -63 25 -63 62c0 32 15 50 42 52c-19 17 -46 25 -83 25c-75 0 -128 -46 -148 -129c-8 -31 -12 -64 -13 -113c44 43 88 62 146 62c121 0 204 -84 204 -206 c0 -67 -23 -125 -67 -168c-41 -39 -85 -55 -151 -55c-80 0 -145 28 -185 81zM172 194c0 -90 48 -149 123 -149c72 0 118 61 118 157c0 90 -46 146 -119 146c-77 0 -122 -56 -122 -154z"/><glyph unicode="7" horiz-adv-x="567" d="M187 0c4 204 26 258 164 411c83 93 97 113 107 150c-27 -31 -57 -45 -96 -45c-21 0 -40 4 -85 16c-38 10 -55 13 -83 13c-57 0 -88 -28 -88 -78v-73h-59v251h59v-54c27 42 58 60 101 60c31 0 65 -8 111 -27c73 -31 81 -33 104 -33c30 0 44 16 45 51c0 0 0 1 1 3h50 c1 -12 1 -24 1 -31c0 -55 -9 -87 -41 -140c-11 -18 -12 -18 -93 -137c-71 -104 -91 -181 -92 -337h-106z"/><glyph unicode="8" horiz-adv-x="567" d="M48 159c0 73 35 121 122 166c-74 29 -109 78 -109 150c0 50 19 92 55 125c41 38 91 54 164 54c137 0 221 -59 221 -155c0 -44 -20 -83 -55 -110c-18 -14 -32 -22 -64 -38c91 -38 135 -93 135 -170c0 -116 -96 -194 -239 -194c-141 0 -230 66 -230 172zM242 412l84 -35 c35 20 47 28 61 43c18 18 29 46 29 71c0 65 -52 104 -138 104c-74 0 -128 -38 -128 -90c0 -36 32 -68 92 -93zM127 170c0 -70 63 -119 153 -119c82 0 142 44 142 103c0 47 -41 86 -124 116l-72 26c-62 -30 -99 -77 -99 -126z"/><glyph unicode="9" horiz-adv-x="567" d="M58 108c0 45 30 77 73 77c38 0 64 -26 64 -63c0 -29 -15 -46 -43 -52c23 -17 44 -24 79 -24c64 0 110 30 139 90c18 39 25 79 26 152c-49 -44 -90 -61 -144 -61c-121 0 -206 84 -206 205c0 133 88 222 220 222c70 0 132 -24 171 -66c49 -52 70 -121 70 -233 c0 -242 -94 -368 -275 -368c-102 0 -174 50 -174 121zM275 294c73 0 119 58 119 151c0 90 -48 150 -121 150s-120 -61 -120 -155c0 -92 45 -146 122 -146z"/><glyph unicode=":" horiz-adv-x="267" d="M133 334c-37 0 -66 30 -66 67c0 36 30 65 67 65c35 0 65 -30 65 -66s-30 -66 -66 -66zM67 49c0 36 30 65 67 65c35 0 65 -30 65 -66s-30 -66 -66 -66c-37 0 -66 30 -66 67z"/><glyph unicode=";" horiz-adv-x="267" d="M127 334c-37 0 -66 30 -66 67c0 36 30 65 67 65c35 0 65 -30 65 -66s-30 -66 -66 -66zM59 47c0 39 30 68 69 68c46 0 79 -42 79 -99c0 -80 -54 -139 -137 -151v41c51 9 83 45 85 96c-13 -11 -21 -14 -38 -14c-33 0 -58 26 -58 59z"/><glyph unicode="&lt;" d="M33 290v84l433 211v-98l-329 -155l329 -156v-97z"/><glyph unicode="=" horiz-adv-x="567" d="M67 379v86h433v-86h-433zM67 217v86h433v-86h-433z"/><glyph unicode="&gt;" d="M33 79v98l329 155l-329 156v97l433 -211v-84z"/><glyph unicode="?" horiz-adv-x="557" d="M220 165c0 74 18 116 81 180c56 58 71 84 71 129c0 67 -60 117 -140 117c-48 0 -92 -18 -117 -49c-12 -14 -18 -28 -22 -55c16 8 29 12 42 12c33 0 59 -28 59 -63c0 -40 -32 -71 -74 -71c-50 0 -87 47 -87 110c0 107 90 179 225 179c134 0 225 -74 225 -182 c0 -70 -26 -108 -116 -171c-71 -50 -86 -73 -93 -136h-54zM180 50c0 37 30 66 68 66c35 0 65 -30 65 -66c0 -37 -30 -67 -66 -67c-37 0 -67 30 -67 67z"/><glyph unicode="@" horiz-adv-x="733" d="M134 -7c-65 63 -103 156 -103 250c0 197 154 351 352 351c182 0 317 -127 317 -297c0 -125 -78 -236 -165 -236c-39 0 -69 25 -75 62c-28 -43 -75 -68 -125 -68c-82 0 -142 68 -142 161c0 109 81 202 176 202c49 0 85 -21 105 -63l10 52l70 -1l-39 -202 c-4 -22 -7 -38 -7 -45c0 -24 12 -40 30 -40c51 0 100 87 100 177c0 138 -105 235 -253 235c-161 0 -286 -126 -286 -289c0 -76 28 -149 78 -201c52 -53 120 -79 210 -79c74 0 139 13 200 39l18 -62c-63 -26 -137 -40 -218 -40c-104 0 -188 31 -253 94zM272 218 c0 -55 33 -92 80 -92c56 0 102 60 102 133c0 53 -30 87 -76 87c-57 0 -106 -59 -106 -128z"/><glyph unicode="A" horiz-adv-x="757" d="M-17 0v57h35c47 0 65 17 95 93l207 517h105l227 -531c23 -54 26 -53 32 -61c10 -12 27 -18 53 -18h36v-57h-325v57h56c36 0 48 6 48 22c0 7 -3 18 -9 31l-47 112h-281l-35 -86c-5 -13 -9 -33 -9 -45c0 -25 15 -34 56 -34h52v-57h-296zM237 283h234l-123 286z"/><glyph unicode="B" horiz-adv-x="737" d="M33 0v57h38c54 0 66 10 66 59v435c0 49 -12 59 -66 59h-38v57h396c152 0 235 -58 235 -164c0 -80 -48 -134 -130 -150c104 -12 163 -71 163 -163c0 -68 -35 -127 -92 -158c-44 -23 -91 -32 -163 -32h-409zM245 377h172c82 0 132 44 132 118c0 71 -47 111 -132 111h-172 v-229zM245 61h177c103 0 154 43 154 127c0 77 -56 128 -141 128h-190v-255z"/><glyph unicode="C" horiz-adv-x="722" d="M50 326c0 110 37 206 107 274c60 57 127 83 216 83c87 0 134 -17 209 -76l30 67h55v-267h-55c-14 123 -100 206 -213 206c-135 0 -228 -115 -228 -282c0 -164 87 -271 221 -271c117 0 205 78 227 203h66c-8 -76 -28 -129 -69 -179c-58 -70 -130 -101 -234 -101 c-200 0 -332 136 -332 343z"/><glyph unicode="D" horiz-adv-x="788" d="M33 0v57h38c54 0 66 10 66 59v435c0 49 -12 59 -66 59h-38v57h398c184 0 307 -129 307 -322c0 -212 -121 -345 -315 -345h-390zM245 61h158c138 0 214 98 214 277c0 177 -77 268 -225 268h-147v-545z"/><glyph unicode="E" horiz-adv-x="753" d="M33 0v57h44c54 0 66 10 66 59v435c0 49 -12 59 -66 59h-44v57h645v-249h-59v18c0 111 -47 170 -136 170h-232v-231h97c54 0 81 27 81 83v44h59v-315h-59v34c0 68 -24 97 -79 97h-99v-257h188c104 0 150 19 170 70c13 33 16 60 19 154h61v-285h-656z"/><glyph unicode="F" horiz-adv-x="671" d="M33 0v57h44c54 0 66 10 66 59v435c0 49 -12 59 -66 59h-44v57h635v-256h-59c1 10 1 19 1 23c0 114 -53 172 -158 172h-201v-229h96c54 0 77 27 77 90v40h61v-323h-61v43c0 63 -23 89 -78 89h-95v-200c0 -49 12 -59 66 -59h44v-57h-328z"/><glyph unicode="G" horiz-adv-x="801" d="M50 326c0 100 34 193 93 258c61 67 140 99 240 99c85 0 146 -23 202 -75l29 69h56v-258h-56c-11 54 -27 90 -53 121c-36 42 -98 68 -163 68c-73 0 -140 -34 -176 -89c-33 -50 -51 -121 -51 -194c0 -158 91 -263 227 -263c52 0 103 18 139 50c24 22 34 44 34 76v61 c0 33 -14 43 -59 43h-54v57h323v-57h-55c-36 0 -47 -10 -47 -43v-242h-54l-27 76c-47 -67 -117 -100 -211 -100c-198 0 -337 141 -337 343z"/><glyph unicode="H" horiz-adv-x="857" d="M33 0v57h44c54 0 66 10 66 59v435c0 49 -12 59 -66 59h-44v57h328v-57h-44c-54 0 -66 -10 -66 -59v-171h354v171c0 49 -12 59 -66 59h-44v57h328v-57h-44c-54 0 -66 -10 -66 -59v-435c0 -49 12 -59 66 -59h44v-57h-328v57h44c54 0 66 10 66 59v203h-354v-203 c0 -49 12 -59 66 -59h44v-57h-328z"/><glyph unicode="I" horiz-adv-x="395" d="M33 0v57h44c54 0 66 10 66 59v435c0 49 -12 59 -66 59h-44v57h328v-57h-44c-54 0 -66 -10 -66 -59v-435c0 -49 12 -59 66 -59h44v-57h-328z"/><glyph unicode="J" horiz-adv-x="498" d="M77 68c0 -15 31 -29 66 -29c41 0 77 18 93 48c12 22 16 49 16 114v350c0 49 -12 59 -66 59h-48v57h326v-57h-38c-54 0 -66 -10 -66 -59v-361c0 -76 -11 -115 -44 -150c-34 -37 -86 -57 -149 -57c-108 0 -184 59 -184 144c0 50 38 91 82 91c41 0 74 -32 74 -73 c0 -31 -17 -54 -50 -66c-9 -3 -12 -6 -12 -11z"/><glyph unicode="K" horiz-adv-x="781" d="M33 0v57h38c54 0 66 10 66 59v435c0 49 -12 59 -66 59h-38v57h316v-57h-38c-54 0 -66 -10 -66 -59v-236l223 198c69 62 71 67 71 82c0 12 -7 16 -26 16h-77v56h339v-56h-33c-31 0 -58 -5 -74 -14c-14 -7 -17 -8 -67 -52l-138 -121l222 -308c39 -54 45 -59 84 -59h25v-57 h-326v57h61c25 0 36 6 36 18c0 10 -3 16 -36 62l-152 212l-132 -116v-117c0 -49 12 -59 66 -59h38v-57h-316z"/><glyph unicode="L" horiz-adv-x="643" d="M33 0v57h44c54 0 66 10 66 59v435c0 49 -12 59 -66 59h-44v57h331v-57h-47c-54 0 -66 -10 -66 -59v-490h186c66 0 103 22 128 77c15 31 21 70 24 145h57v-283h-613z"/><glyph unicode="M" horiz-adv-x="982" d="M33 0v57h38c54 0 66 10 66 59v435c0 49 -12 59 -66 59h-38v57h265l195 -497l196 497h259v-57h-38c-54 0 -66 -10 -66 -59v-435c0 -49 12 -59 66 -59h38v-57h-316v57h38c54 0 66 10 66 59v476l-238 -592h-51l-241 592v-476c0 -49 12 -59 66 -59h38v-57h-277z"/><glyph unicode="N" horiz-adv-x="823" d="M33 0v57h38c54 0 66 10 66 59v435c0 49 -12 59 -66 59h-38v57h228l370 -500v384c0 49 -12 59 -66 59h-44v57h275v-57h-30c-54 0 -66 -10 -66 -59v-551h-81l-413 553v-437c0 -49 12 -59 66 -59h44v-57h-283z"/><glyph unicode="O" horiz-adv-x="803" d="M174 54c-80 63 -124 161 -124 275c0 126 54 239 143 299c56 38 124 56 210 56c76 0 149 -19 202 -53c93 -59 148 -169 148 -297c0 -120 -48 -225 -133 -287c-58 -43 -129 -64 -219 -64c-94 0 -167 23 -227 71zM231 120c42 -48 102 -75 169 -75c146 0 232 109 232 292 c0 102 -29 179 -87 231c-39 36 -86 54 -138 54c-72 0 -131 -26 -174 -77c-42 -49 -62 -120 -62 -218c0 -95 18 -157 60 -207z"/><glyph unicode="P" horiz-adv-x="669" d="M33 0v57h44c54 0 66 10 66 59v435c0 49 -12 59 -66 59h-44v57h411c77 0 116 -8 154 -33c48 -31 71 -80 71 -152c0 -65 -22 -116 -62 -143c-38 -26 -81 -35 -157 -35h-199v-188c0 -49 12 -59 65 -59h51v-57h-334zM251 365h163c93 0 138 39 138 120c0 39 -14 73 -37 93 s-53 28 -102 28h-162v-241z"/><glyph unicode="Q" horiz-adv-x="810" d="M50 330c0 100 34 192 94 256c61 65 149 98 259 98c105 0 189 -30 250 -90c64 -64 100 -157 100 -262c0 -126 -47 -223 -139 -290c24 -38 48 -54 80 -54c31 0 54 22 58 55c2 13 2 21 3 57h52v-22c0 -73 -7 -100 -33 -134c-23 -29 -52 -43 -90 -43c-61 0 -109 34 -147 104 c-37 -14 -86 -22 -134 -22c-214 0 -353 137 -353 347zM267 88c-3 12 -4 19 -4 29c0 59 51 103 119 103c44 0 90 -17 123 -45c19 -16 32 -30 60 -66c45 55 67 130 67 228c0 95 -22 162 -71 216c-41 46 -94 69 -156 69c-145 0 -234 -111 -234 -292c0 -117 33 -200 96 -242z M307 94c0 -11 3 -19 11 -34c27 -10 53 -15 86 -15c36 0 66 5 93 16c-36 64 -78 97 -123 97c-38 0 -67 -28 -67 -64z"/><glyph unicode="R" horiz-adv-x="764" d="M33 0v57h38c54 0 66 10 66 59v435c0 49 -12 59 -66 59h-38v57h452c68 0 106 -10 139 -38s54 -78 54 -127c0 -52 -22 -98 -62 -128c-28 -21 -53 -29 -98 -34c86 -23 111 -63 113 -176c1 -80 10 -100 38 -100c26 0 37 19 37 62v73h54v-73c0 -59 -10 -89 -36 -110 c-21 -17 -52 -27 -85 -27c-41 0 -73 14 -91 40c-15 22 -21 49 -24 97c-6 113 -11 136 -34 162c-19 21 -47 31 -87 31h-158v-203c0 -49 12 -59 66 -59h44v-57h-322zM245 380h195c76 0 121 43 121 115c0 74 -42 111 -127 111h-189v-226z"/><glyph unicode="S" horiz-adv-x="663" d="M56 0v267h62c6 -70 23 -110 60 -146c44 -42 112 -68 178 -68c91 0 155 49 155 119c0 33 -13 58 -38 73c-28 18 -62 26 -151 38c-107 15 -143 24 -187 46c-54 27 -82 76 -82 144c0 127 100 211 250 211c83 0 135 -18 205 -69l23 58h53v-248h-55c-12 65 -28 101 -57 131 c-37 37 -94 58 -158 58c-92 0 -162 -50 -162 -116c0 -36 21 -63 59 -76c27 -9 27 -9 160 -29c81 -12 131 -25 166 -45c49 -27 80 -84 80 -148c0 -128 -103 -217 -250 -217c-61 0 -126 15 -166 38c-19 11 -34 22 -66 50l-25 -71h-54z"/><glyph unicode="T" horiz-adv-x="633" d="M147 0v57h49c54 0 66 10 66 59v490h-52c-49 0 -68 -4 -91 -21c-27 -19 -38 -42 -46 -95c-4 -30 -6 -45 -6 -76h-57v253h613v-253h-56c-1 53 -7 96 -17 125c-9 25 -30 48 -55 59c-14 6 -31 8 -66 8h-56v-490c0 -49 12 -59 66 -59h51v-57h-343z"/><glyph unicode="U" horiz-adv-x="776" d="M178 51c-40 39 -57 89 -57 166v334c0 49 -12 59 -66 59h-38v57h320v-57h-38c-54 0 -66 -10 -66 -59v-340c0 -58 15 -93 50 -117c32 -23 75 -35 125 -35c57 0 106 17 136 47c31 31 43 72 43 147v298c0 49 -12 59 -66 59h-44v57h283v-57h-38c-54 0 -66 -10 -66 -59v-340 c0 -71 -22 -122 -68 -165c-49 -44 -106 -63 -195 -63c-97 0 -167 22 -215 68z"/><glyph unicode="V" horiz-adv-x="719" d="M327 0l-220 530c-29 69 -41 80 -90 80h-30v57h322v-57h-64c-28 0 -39 -7 -39 -25c0 -7 2 -15 6 -24l186 -454l154 408c11 29 17 50 17 62c0 21 -17 33 -46 33h-58v57h268v-57h-28c-31 0 -44 -12 -62 -57l-217 -553h-99z"/><glyph unicode="W" horiz-adv-x="1061" d="M281 0l-192 542c-19 53 -33 67 -70 67h-32v58h302v-57h-47c-35 0 -50 -9 -50 -30c0 -7 2 -17 7 -30l152 -428l143 401l-14 45c-9 28 -29 42 -60 42h-55v57h325v-57h-55c-30 0 -42 -6 -42 -21c0 -9 4 -26 9 -39l157 -428l136 401c9 27 13 44 13 55c0 22 -12 31 -42 31h-59 v58h267v-58h-33c-33 0 -45 -14 -70 -86l-183 -523h-98l-158 430l-152 -430h-99z"/><glyph unicode="X" horiz-adv-x="714" d="M-10 0v57h27c25 0 43 6 58 17c13 10 13 10 70 76l153 177l-182 227c-37 46 -51 56 -83 56h-38v57h338v-57h-65c-24 0 -34 -5 -34 -17c0 -10 5 -20 20 -39l117 -144l118 138c20 24 26 33 26 42c0 14 -11 20 -38 20h-61v57h300v-56h-32c-41 0 -60 -12 -113 -72l-160 -179 l208 -257c7 -8 14 -16 16 -18c19 -24 26 -28 56 -28h33v-57h-332v57h67c25 0 34 4 34 16c0 6 -13 26 -31 49l-122 151l-104 -123c-40 -47 -49 -61 -49 -72c0 -15 11 -21 36 -21h59v-57h-292z"/><glyph unicode="Y" horiz-adv-x="696" d="M190 0v57h53c54 0 66 10 66 59v147l-214 299c-29 40 -42 49 -74 49h-31v56h328v-56h-64c-27 0 -37 -6 -37 -22c0 -8 1 -10 14 -29l154 -217l124 189c22 33 28 47 28 59c0 13 -12 20 -36 20h-62v56h267v-56h-30c-32 0 -39 -6 -76 -63l-183 -278v-154c0 -49 11 -59 65 -59 h56v-57h-348z"/><glyph unicode="Z" horiz-adv-x="641" d="M30 0v61l437 545h-186c-134 0 -172 -42 -178 -197h-59v258h563v-61l-439 -545h246c57 0 93 24 118 79c15 32 20 71 22 149h57v-289h-581z"/><glyph unicode="[" horiz-adv-x="326" d="M93 -203v870h213v-57h-114v-756h114v-57h-213z"/><glyph unicode="\" horiz-adv-x="330" d="M292 -203l-279 870h85l277 -870h-83z"/><glyph unicode="]" horiz-adv-x="326" d="M20 -146h114v757h-114v56h213v-870h-213v57z"/><glyph unicode="^" d="M16 351l169 318h130l169 -318h-104l-130 240l-130 -240h-104z"/><glyph unicode="_" d="M0 -58h500v-88h-500v88z"/><glyph unicode="&#8216;" horiz-adv-x="266" d="M138 443c-46 0 -79 42 -79 100c0 42 18 80 51 109c20 18 39 26 84 38v-44c-45 -5 -83 -47 -83 -91c12 11 22 15 39 15c34 0 57 -25 57 -60c0 -39 -29 -67 -69 -67z"/><glyph unicode="a" horiz-adv-x="570" d="M37 115c0 90 48 130 179 150c113 17 134 29 134 79c0 58 -38 88 -112 88c-42 0 -75 -10 -97 -31c28 -5 41 -19 41 -46c0 -34 -26 -59 -61 -59c-37 0 -61 27 -61 68c0 30 13 56 39 78c37 30 79 42 150 42c77 0 132 -15 163 -43c25 -23 33 -48 33 -98v-238 c0 -34 10 -50 32 -50c30 0 36 18 36 101v41h51v-41c0 -77 -5 -104 -23 -129c-18 -24 -52 -38 -90 -38c-62 0 -96 30 -104 94c-47 -71 -96 -100 -165 -100c-92 0 -145 48 -145 132zM142 123c0 -43 29 -69 77 -69c39 0 73 16 98 44c23 26 30 48 30 90v64 c-24 -13 -37 -18 -73 -29c-67 -20 -85 -27 -102 -38c-21 -14 -30 -33 -30 -62z"/><glyph unicode="b" horiz-adv-x="611" d="M98 0v551c0 55 -7 63 -56 63h-21v53h175v-278c34 62 91 95 165 95c119 0 204 -101 204 -243c0 -79 -29 -156 -76 -205c-33 -34 -82 -53 -137 -53c-73 0 -114 24 -163 96l-44 -79h-47zM191 229c0 -104 54 -175 134 -175c82 0 135 71 135 181c0 108 -50 178 -128 178 c-86 0 -141 -72 -141 -184z"/><glyph unicode="c" horiz-adv-x="544" d="M47 230c0 157 94 254 245 254c119 0 202 -57 202 -138c0 -46 -30 -79 -72 -79c-38 0 -65 26 -65 63c0 29 13 45 41 48c5 1 8 4 8 8c0 18 -54 39 -103 39c-94 0 -151 -72 -151 -191c0 -114 58 -185 150 -185c75 0 128 53 144 143h58c-8 -59 -25 -102 -57 -140 c-41 -49 -88 -69 -162 -69c-148 0 -238 93 -238 247z"/><glyph unicode="d" horiz-adv-x="625" d="M46 224c0 151 92 260 218 260c66 0 119 -30 151 -84v151c0 55 -7 63 -57 63h-42v53h195v-551c0 -55 7 -63 57 -63h29v-53h-182v85c-43 -73 -91 -102 -164 -102c-118 0 -205 102 -205 241zM151 227c0 -110 46 -173 127 -173c87 0 141 71 141 184c0 105 -52 175 -130 175 c-86 0 -138 -69 -138 -186z"/><glyph unicode="e" horiz-adv-x="558" d="M179 115c25 -41 68 -64 120 -64c76 0 132 46 150 123h64c-26 -123 -108 -191 -231 -191c-143 0 -235 99 -235 253c0 150 95 248 241 248c88 0 161 -38 199 -104c21 -35 28 -73 28 -151h-361c1 -54 9 -86 25 -114zM154 286h255c-1 42 -6 63 -21 87c-20 33 -62 55 -104 55 c-71 0 -122 -56 -130 -142z"/><glyph unicode="f" horiz-adv-x="343" d="M22 0v53h36c50 0 57 8 57 63v296h-95v55h95v58c0 51 11 83 37 110c27 27 68 42 114 42c63 0 110 -37 110 -87c0 -34 -24 -60 -55 -60c-30 0 -52 21 -52 51c0 23 14 41 35 44c-18 9 -25 11 -38 11c-37 0 -53 -22 -53 -71v-98h114v-55h-114v-296c0 -55 7 -63 57 -63h56v-53 h-304z"/><glyph unicode="g" horiz-adv-x="598" d="M35 78c0 48 25 79 80 99c-42 32 -61 71 -61 124c0 109 84 183 209 183c67 0 121 -20 162 -60c25 38 63 61 99 61c46 0 81 -33 81 -75c0 -39 -24 -70 -53 -70c-26 0 -50 27 -50 54c0 15 7 28 21 38c2 2 3 4 3 4c0 2 -5 4 -8 4c-25 0 -49 -15 -70 -46c15 -25 22 -54 22 -86 c0 -103 -84 -174 -205 -174c-44 0 -84 8 -119 24c-25 -13 -35 -26 -35 -45c0 -34 29 -46 112 -46h172c65 0 92 -6 116 -24c22 -17 34 -48 34 -84c0 -48 -21 -86 -61 -116c-47 -34 -105 -49 -201 -49c-95 0 -156 8 -200 26c-38 16 -63 51 -63 88c0 41 22 66 74 83 c-40 18 -59 46 -59 87zM261 180c65 0 106 49 106 127c0 77 -41 127 -104 127c-66 0 -104 -47 -104 -128c0 -78 38 -126 102 -126zM99 -76c0 -53 56 -78 176 -78c124 0 177 24 177 79c0 19 -9 35 -27 43s-30 9 -169 10c-49 0 -79 1 -124 4c-24 -18 -33 -33 -33 -58z"/><glyph unicode="h" horiz-adv-x="665" d="M31 0v53h36c50 0 57 8 57 63v435c0 55 -7 63 -57 63h-36v53h191v-265c34 53 92 82 166 82c96 0 158 -55 158 -140v-228c0 -55 7 -63 57 -63h36v-53h-277v53h29c50 0 57 8 57 63v208c0 34 -10 57 -33 72c-19 13 -44 20 -68 20c-28 0 -62 -10 -86 -27 c-26 -18 -39 -47 -39 -86v-187c0 -55 7 -63 57 -63h32v-53h-280z"/><glyph unicode="i" horiz-adv-x="346" d="M176 541c-36 0 -65 29 -65 65c0 35 29 64 66 64c34 0 63 -29 63 -64c0 -36 -29 -65 -64 -65zM30 0v53h42c50 0 57 8 57 63v235c0 55 -7 63 -57 63h-42v53h197v-351c0 -55 7 -63 57 -63h36v-53h-290z"/><glyph unicode="j" horiz-adv-x="309" d="M163 541c-35 0 -64 29 -64 65s29 64 65 64c35 0 64 -29 64 -64c0 -36 -29 -65 -65 -65zM27 -31c34 0 58 -23 58 -56c0 -35 -21 -56 -56 -56c-1 0 -3 0 -6 1c12 -15 23 -20 42 -20c22 0 43 10 53 26c10 17 13 31 13 90v397c0 55 -7 63 -57 63h-46v53h201v-458 c0 -72 -9 -116 -32 -150c-26 -39 -73 -63 -122 -63c-66 0 -115 42 -115 98c0 44 28 75 67 75z"/><glyph unicode="k" horiz-adv-x="637" d="M31 0v53h36c50 0 57 8 57 63v435c0 55 -7 63 -57 63h-36v53h191v-444l144 117c38 31 51 46 51 59c0 8 -10 13 -26 13h-69v55h303v-55h-39c-29 0 -46 -6 -70 -25l-117 -91l147 -203c21 -29 38 -40 60 -40h32v-53h-282v53h55c18 0 26 5 26 16c0 7 -3 14 -10 24l-105 143 l-100 -81v-39c0 -55 7 -63 57 -63h29v-53h-277z"/><glyph unicode="l" horiz-adv-x="340" d="M30 0v53h36c50 0 57 8 57 63v435c0 55 -7 63 -57 63h-36v53h191v-551c0 -55 7 -63 57 -63h36v-53h-284z"/><glyph unicode="m" horiz-adv-x="957" d="M30 0v53h36c50 0 57 8 57 63v235c0 55 -7 63 -57 63h-36v53h189l-3 -77c44 68 90 94 167 94c71 0 121 -32 144 -94c35 62 90 94 164 94c56 0 96 -16 122 -48c23 -30 31 -61 31 -123v-197c0 -55 7 -63 57 -63h29v-53h-266v53h25c50 0 57 8 57 63v186c0 54 -6 73 -27 90 c-16 13 -41 21 -67 21c-71 0 -117 -52 -117 -134v-163c0 -55 7 -63 57 -63h29v-53h-270v53h29c50 0 57 8 57 63v186c0 49 -6 68 -25 86c-17 15 -43 25 -70 25c-34 0 -67 -14 -89 -38c-24 -25 -32 -53 -32 -106v-153c0 -55 7 -63 57 -63h29v-53h-277z"/><glyph unicode="n" horiz-adv-x="661" d="M30 0v53h36c50 0 57 8 57 63v235c0 55 -7 63 -57 63h-36v53h191l-4 -75c54 69 97 92 170 92c49 0 91 -15 120 -41c30 -27 42 -60 42 -114v-213c0 -55 7 -63 57 -63h29v-53h-273v53h29c50 0 57 8 57 63v192c0 45 -7 66 -28 85c-16 16 -37 23 -66 23 c-79 0 -133 -48 -133 -119v-181c0 -55 7 -63 57 -63h29v-53h-277z"/><glyph unicode="o" horiz-adv-x="598" d="M47 235c0 150 102 249 256 249c146 0 249 -103 249 -250c0 -152 -99 -251 -250 -251c-156 0 -255 98 -255 252zM200 84c24 -27 59 -42 99 -42c91 0 143 66 143 183c0 127 -51 200 -139 200c-93 0 -146 -71 -146 -197c0 -68 13 -111 43 -144z"/><glyph unicode="p" horiz-adv-x="628" d="M120 -87v438c0 55 -7 63 -57 63h-36v53h191l-5 -80c26 32 35 43 50 56c30 27 71 41 117 41c121 0 202 -96 202 -239c0 -151 -88 -262 -206 -262c-69 0 -113 25 -158 89v-159c0 -55 7 -63 57 -63h45v-53h-293v53h36c50 0 57 8 57 63zM213 230c0 -106 54 -176 134 -176 c81 0 130 71 130 188c0 108 -47 171 -127 171c-83 0 -137 -73 -137 -183z"/><glyph unicode="q" horiz-adv-x="621" d="M47 225c0 149 92 259 216 259c65 0 104 -24 154 -94v77h178v-53h-27c-49 0 -56 -8 -56 -63v-438c0 -55 7 -63 56 -63h27v-53h-277v53h42c50 0 57 8 57 63v163c-37 -64 -88 -93 -164 -93c-124 0 -206 97 -206 242zM152 226c0 -103 50 -167 132 -167c83 0 136 67 136 172 c0 65 -14 110 -46 142c-25 25 -61 40 -92 40c-81 0 -130 -71 -130 -187z"/><glyph unicode="r" horiz-adv-x="449" d="M29 0v53h42c50 0 57 8 57 63v235c0 55 -7 63 -57 63h-42v53h191l-4 -101c30 43 42 59 59 73c28 25 62 39 93 39c50 0 87 -36 87 -83c0 -43 -27 -75 -64 -75c-31 0 -56 24 -56 55c0 16 6 27 20 38c2 1 3 4 3 6c0 5 -4 7 -13 7c-14 0 -44 -17 -62 -36 c-28 -29 -44 -61 -57 -114v-160c0 -55 7 -63 57 -63h56v-53h-310z"/><glyph unicode="s" horiz-adv-x="506" d="M44 -7v186h55c11 -40 21 -62 40 -82c29 -31 81 -51 130 -51c61 0 102 28 102 69c0 20 -11 38 -29 48c-19 10 -45 17 -114 34c-93 22 -113 29 -140 46c-30 20 -48 57 -48 98c0 88 68 142 176 142c72 0 120 -17 160 -57l15 48h51v-171h-51c-23 75 -79 117 -157 117 c-61 0 -102 -25 -102 -64c0 -33 16 -40 161 -74c71 -16 97 -26 124 -44c34 -23 49 -54 49 -100c0 -95 -70 -154 -183 -154c-75 0 -129 20 -175 65l-15 -56h-49z"/><glyph unicode="t" horiz-adv-x="363" d="M123 13c-23 21 -29 39 -29 84v313h-87v57c4 -1 5 -1 5 -1c5 0 39 8 46 11c41 15 74 79 74 142v9h63v-161h134v-57h-134v-304c0 -35 13 -52 39 -52c36 0 47 22 47 92v47h55v-47c0 -72 -9 -107 -33 -132c-21 -21 -50 -31 -90 -31s-68 9 -90 30z"/><glyph unicode="u" horiz-adv-x="652" d="M154 24c-26 26 -34 55 -34 124v203c0 55 -7 63 -57 63h-36v53h191v-305c0 -51 7 -73 29 -90c16 -12 42 -20 69 -20c72 0 126 53 126 124v175c0 55 -7 63 -57 63h-36v53h191v-351c0 -55 7 -63 57 -63h29v-53h-184v78c-38 -66 -88 -95 -165 -95c-55 0 -97 14 -123 41z"/><glyph unicode="v" horiz-adv-x="542" d="M228 0l-145 355c-17 41 -34 58 -61 58h-35v54h274v-54h-47c-25 0 -38 -7 -38 -20c0 -6 2 -15 5 -22l115 -284l114 284c3 8 5 14 5 18c0 18 -10 24 -39 24h-42v54h222v-54h-28c-21 0 -36 -13 -48 -42l-155 -371h-97z"/><glyph unicode="w" horiz-adv-x="798" d="M191 0l-111 346c-15 48 -36 67 -70 67h-23v54h256v-57h-52c-16 0 -25 -6 -25 -18c0 -6 1 -12 4 -20l89 -277l105 285c2 5 3 11 3 14c0 11 -8 16 -25 16h-55v57h266v-57h-51c-20 0 -28 -5 -28 -18c0 -2 1 -5 3 -12l95 -279l90 271c3 8 4 15 4 21c0 11 -10 17 -29 17h-40 v57h214v-54h-28c-23 0 -43 -21 -57 -62l-122 -351h-102l-101 301l-114 -301h-96z"/><glyph unicode="x" horiz-adv-x="578" d="M-11 0v53h32c25 0 33 4 63 33l150 141l-134 141c-33 34 -47 44 -71 44h-34v55h291v-57h-46c-20 0 -29 -4 -29 -14c0 -7 0 -7 14 -21l78 -81l87 81c9 8 14 16 14 23c0 9 -7 12 -25 12h-46v57h248l2 -55h-26c-26 0 -44 -10 -81 -44l-131 -119l156 -163 c30 -32 32 -33 57 -33h29v-53h-294v53h58c17 0 25 5 25 15c0 7 -1 8 -16 24l-86 92l-84 -82c-19 -19 -25 -27 -25 -35c0 -11 9 -14 36 -14h46v-53h-258z"/><glyph unicode="y" horiz-adv-x="548" d="M61 -13c36 0 63 -26 63 -61c0 -38 -23 -59 -65 -59c16 -16 29 -22 55 -22c58 0 94 35 132 128l-163 384c-18 43 -34 56 -68 56h-26v54h271v-54h-43c-27 0 -39 -5 -39 -18c0 -7 5 -24 11 -38l111 -260l108 260c6 15 8 24 8 32c0 17 -10 24 -34 24h-46v54h225v-54h-25 c-31 0 -37 -6 -64 -69l-162 -376c-36 -84 -55 -113 -90 -140c-28 -22 -61 -32 -106 -32c-79 0 -127 41 -127 108c0 49 30 83 74 83z"/><glyph unicode="z" horiz-adv-x="486" d="M13 0v57l330 353h-144c-53 0 -80 -18 -95 -64c-5 -16 -6 -29 -9 -80h-56v201h433v-54l-330 -356h141c64 0 98 18 118 61c11 23 15 51 16 109h55v-227h-459z"/><glyph unicode="{" d="M190 -57v165c0 56 -15 81 -56 90v81c39 10 56 34 56 83v172c0 99 43 140 148 140c10 0 10 0 47 -1v-86h-11c-31 0 -57 -5 -68 -14c-14 -11 -18 -26 -18 -65v-152c0 -66 -13 -93 -60 -121c45 -27 60 -58 60 -122v-149c0 -41 5 -57 21 -69c10 -7 35 -12 65 -12h11v-85 l-25 -1h-24c-104 0 -146 42 -146 146z"/><glyph unicode="|" d="M201 -167v834h98v-834h-98z"/><glyph unicode="}" d="M115 -117h12c31 0 56 5 66 14c15 12 19 27 19 67v149c0 64 15 95 60 122c-47 28 -60 55 -60 121v152c0 41 -5 56 -20 67c-11 7 -37 12 -67 12h-10v86c37 1 37 1 47 1c105 0 148 -41 148 -140v-172c0 -49 17 -73 57 -83v-81c-41 -9 -57 -34 -57 -90v-165 c0 -104 -42 -146 -146 -146h-24l-25 1v85z"/><glyph unicode="~" horiz-adv-x="667" d="M148 573l-56 36c21 44 25 52 36 68c28 39 63 58 107 58c26 0 57 -9 109 -30c58 -24 70 -28 92 -28c35 0 55 15 82 60l57 -34c-24 -49 -39 -71 -63 -90c-26 -20 -57 -31 -89 -31c-25 0 -48 7 -142 45c-19 8 -39 13 -53 13c-33 0 -55 -18 -80 -67z"/><glyph unicode="&#161;" horiz-adv-x="267" d="M135 351c-37 0 -67 30 -67 67s30 66 68 66c35 0 65 -30 65 -66c0 -37 -30 -67 -66 -67zM70 -78l42 383h44l39 -388c2 -20 4 -37 4 -39c0 -38 -28 -65 -66 -65c-39 0 -66 28 -66 67c0 7 1 25 3 42z"/><glyph unicode="&#162;" horiz-adv-x="567" d="M277 -21v108c-142 11 -222 102 -222 250c0 147 84 242 222 249v97h53v-97c100 -7 174 -65 174 -136c0 -44 -30 -76 -72 -76c-38 0 -65 26 -65 61c0 27 14 46 37 49c7 1 10 2 10 6c0 18 -45 38 -84 39v-377c60 6 115 68 124 139h57c-13 -111 -84 -191 -181 -204v-108h-53z M202 199c21 -25 39 -35 75 -43v369c-70 -8 -117 -83 -117 -187c0 -58 14 -105 42 -139z"/><glyph unicode="&#163;" horiz-adv-x="567" d="M72 55c68 52 104 111 104 169c0 20 -4 36 -14 61h-90v50h61c-29 46 -44 88 -44 127c0 46 21 95 53 129c41 42 100 63 175 63c127 0 207 -63 207 -161c0 -51 -29 -84 -72 -84c-34 0 -61 27 -61 60c0 30 22 52 52 52c6 0 11 -1 22 -3c-6 20 -13 30 -32 42 c-27 18 -62 27 -99 27c-80 0 -137 -47 -137 -114c0 -30 7 -50 42 -124c1 -1 3 -6 6 -14h136v-50h-120c3 -15 4 -22 4 -34c0 -48 -24 -89 -81 -150l-15 -16c43 23 70 32 104 32c23 0 40 -5 84 -25c47 -21 69 -29 84 -29c27 0 40 26 40 80c0 3 0 13 -1 22h54v-17 c0 -74 -6 -98 -28 -127c-19 -25 -49 -38 -85 -38c-32 0 -61 7 -115 29c-60 24 -82 31 -104 31c-35 0 -69 -15 -106 -48z"/><glyph unicode="&#165;" horiz-adv-x="567" d="M136 0v53h43c54 0 66 11 66 60v140h-162v50h148l-39 60h-122v50h89l-98 152c-25 38 -41 49 -71 49h-17v53h282v-53h-51c-27 0 -37 -6 -37 -21c0 -9 4 -20 10 -29l141 -222l111 193c19 34 25 47 25 58c0 14 -12 21 -36 21h-49v53h225v-53h-17c-29 0 -44 -13 -73 -63 l-81 -138h102v-50h-132l-35 -60h153v-50h-164v-140c0 -50 11 -60 65 -60h46v-53h-322z"/><glyph unicode="&#167;" horiz-adv-x="567" d="M72 -45c0 41 33 74 74 74c37 0 66 -26 66 -61c0 -26 -11 -42 -43 -64c23 -19 49 -26 90 -26c84 0 135 37 135 99c0 53 -32 78 -144 113c-150 47 -201 90 -201 170c0 61 36 106 113 139c-51 32 -76 72 -76 123c0 95 85 162 205 162c106 0 183 -52 183 -124 c0 -39 -29 -68 -67 -68c-36 0 -64 26 -64 60c0 23 10 40 35 57c-22 15 -47 21 -87 21c-68 0 -117 -36 -117 -86c0 -20 8 -40 21 -51c22 -19 42 -29 139 -63c83 -29 111 -42 139 -65s45 -60 45 -98c0 -36 -15 -75 -42 -100c-15 -15 -29 -24 -60 -41c53 -31 76 -70 76 -129 c0 -105 -87 -174 -220 -174c-114 0 -200 56 -200 132zM194 213c44 -23 129 -49 161 -49c40 0 76 36 76 75c0 34 -16 52 -68 79c-56 28 -113 46 -144 46c-46 0 -83 -36 -83 -81c0 -28 17 -49 58 -70z"/><glyph unicode="&#164;" horiz-adv-x="667" d="M93 76l-53 54l98 98c-32 44 -48 90 -48 141c0 50 14 91 47 139l-99 99l54 54l99 -99c50 34 91 48 143 48c51 0 92 -14 140 -47l99 98l54 -54l-98 -98c34 -51 48 -91 48 -141s-14 -90 -47 -139l99 -99l-54 -54l-99 98c-44 -32 -90 -48 -141 -48c-50 0 -92 14 -143 47z M334 214c84 0 153 69 153 154c0 84 -69 154 -152 154c-86 0 -155 -68 -155 -154c0 -85 69 -154 154 -154z"/><glyph unicode="'" horiz-adv-x="210" d="M69 399l-18 268h109l-19 -268h-72z"/><glyph unicode="&#8220;" horiz-adv-x="482" d="M354 443c-46 0 -79 42 -79 100c0 42 18 80 51 109c20 18 39 26 84 38v-44c-45 -5 -83 -47 -83 -91c12 11 22 15 39 15c34 0 57 -25 57 -60c0 -39 -29 -67 -69 -67zM138 443c-46 0 -79 42 -79 100c0 42 18 80 51 109c20 18 39 26 84 38v-44c-45 -5 -83 -47 -83 -91 c12 11 22 15 39 15c34 0 57 -25 57 -60c0 -39 -29 -67 -69 -67z"/><glyph unicode="&#171;" horiz-adv-x="435" d="M329 111c-50 75 -86 145 -86 165s24 66 86 163h59c-33 -77 -52 -137 -52 -164s12 -67 51 -164h-58zM133 111c-50 74 -86 145 -86 165s25 67 86 163h59c-33 -79 -52 -137 -52 -164s12 -67 51 -164h-58z"/><glyph unicode="&#8249;" horiz-adv-x="239" d="M133 111c-50 74 -86 145 -86 165s25 67 86 163h59c-33 -79 -52 -137 -52 -164s12 -67 51 -164h-58z"/><glyph unicode="&#8250;" horiz-adv-x="239" d="M47 111c33 77 52 137 52 164s-11 64 -50 164h57c51 -76 86 -144 86 -165c0 -20 -22 -63 -86 -163h-59z"/><glyph unicode="&#8211;" horiz-adv-x="567" d="M70 229v90h426v-90h-426z"/><glyph unicode="&#183;" horiz-adv-x="567" d="M217 243c0 36 30 65 67 65c35 0 65 -30 65 -66s-30 -66 -66 -66c-37 0 -66 30 -66 67z"/><glyph unicode="&#182;" horiz-adv-x="567" d="M201 -96v414c-122 1 -194 65 -194 172c0 66 31 122 83 150c31 17 85 27 142 27h299v-76h-66v-687h-84v687h-96v-687h-84z"/><glyph unicode="&#8226;" horiz-adv-x="667" d="M335 201c-76 0 -139 62 -139 138c0 78 62 139 141 139c74 0 136 -63 136 -138c0 -77 -62 -139 -138 -139z"/><glyph unicode="&#8218;" horiz-adv-x="267" d="M59 46c0 38 29 66 69 66c46 0 79 -42 79 -100c0 -42 -17 -81 -50 -109c-20 -18 -40 -26 -85 -38v44c45 5 83 47 83 91c-12 -11 -22 -15 -39 -15c-33 0 -57 25 -57 61z"/><glyph unicode="&#8222;" horiz-adv-x="483" d="M275 46c0 38 29 66 69 66c46 0 79 -42 79 -100c0 -42 -18 -80 -50 -108c-21 -18 -40 -27 -85 -39v44c45 5 83 47 83 91c-12 -11 -22 -15 -39 -15c-33 0 -57 25 -57 61zM59 46c0 38 29 66 69 66c46 0 79 -42 79 -100c0 -42 -18 -80 -50 -108c-21 -18 -40 -27 -85 -39v44 c45 5 83 47 83 91c-12 -11 -22 -15 -39 -15c-33 0 -57 25 -57 61z"/><glyph unicode="&#8221;" horiz-adv-x="483" d="M288 437v44c45 5 83 47 83 91c-12 -11 -22 -15 -39 -15c-34 0 -57 25 -57 61c0 38 29 66 69 66c46 0 79 -42 79 -100c0 -42 -18 -80 -50 -109c-21 -18 -40 -26 -85 -38zM72 437v44c45 5 83 47 83 91c-12 -11 -22 -15 -39 -15c-34 0 -57 25 -57 61c0 38 29 66 69 66 c46 0 79 -42 79 -100c0 -42 -18 -80 -50 -109c-21 -18 -40 -26 -85 -38z"/><glyph unicode="&#187;" horiz-adv-x="435" d="M243 111c33 77 52 137 52 164s-12 66 -50 164h57c51 -76 86 -144 86 -165c0 -20 -22 -63 -86 -163h-59zM47 111c33 77 52 137 52 164s-11 64 -50 164h57c51 -76 86 -144 86 -165c0 -20 -22 -63 -86 -163h-59z"/><glyph unicode="&#8230;" horiz-adv-x="800" d="M601 49c0 36 30 65 67 65c35 0 65 -30 65 -66s-30 -66 -66 -66c-37 0 -66 30 -66 67zM334 49c0 36 30 65 67 65c35 0 65 -30 65 -66s-30 -66 -66 -66c-37 0 -66 30 -66 67zM67 49c0 36 30 65 67 65c35 0 65 -30 65 -66s-30 -66 -66 -66c-37 0 -66 30 -66 67z"/><glyph unicode="&#191;" horiz-adv-x="557" d="M271 351c-37 0 -67 30 -67 67s30 66 68 66c35 0 65 -30 65 -66c0 -37 -30 -67 -66 -67zM33 -5c0 70 26 108 116 171c71 50 86 72 93 135h54c1 -74 -18 -116 -81 -180c-56 -57 -71 -83 -71 -128c0 -67 60 -117 140 -117c48 0 92 18 117 49c12 14 18 28 22 54 c-17 -8 -29 -12 -41 -12c-34 0 -60 28 -60 63c0 40 32 71 74 71c50 0 87 -47 87 -110c0 -106 -90 -178 -225 -178c-134 0 -225 73 -225 182z"/><glyph unicode="`" d="M238 517l-116 110c-9 8 -13 14 -13 20c0 10 9 16 26 16h87l63 -146h-47z"/><glyph unicode="&#180;" d="M222 517l62 146h88c17 0 26 -6 26 -16c0 -6 -4 -12 -13 -20l-117 -110h-46z"/><glyph unicode="&#710;" d="M97 523l109 145h96l101 -145h-88l-72 85l-81 -85h-65z"/><glyph unicode="&#732;" d="M82 538c1 69 38 114 94 114c20 0 36 -4 76 -19c44 -16 64 -21 78 -21c21 0 32 12 37 44h51c-2 -67 -41 -115 -95 -115c-21 0 -47 7 -84 21c-43 17 -55 21 -69 21c-23 0 -30 -9 -37 -45h-51z"/><glyph unicode="&#175;" d="M90 553v68h320v-68h-320z"/><glyph unicode="&#168;" d="M352 544c-32 0 -58 26 -58 58c0 31 26 57 58 57c31 0 57 -26 57 -57c0 -32 -26 -58 -57 -58zM150 544c-32 0 -58 26 -58 58c0 31 26 57 58 57c31 0 57 -26 57 -57c0 -32 -26 -58 -57 -58z"/><glyph unicode="&#184;" d="M187 -76l54 78h39l-40 -58c17 3 25 4 36 4c46 0 78 -27 78 -65c0 -46 -45 -79 -108 -79c-33 0 -62 6 -99 21l15 32c29 -11 52 -16 75 -16c31 0 53 16 53 38s-19 37 -46 37c-12 0 -23 -2 -39 -9z"/><glyph unicode="&#8212;" horiz-adv-x="721" d="M0 229v90h721v-90h-721z"/><glyph unicode="&#198;" horiz-adv-x="1111" d="M-17 0v58h33c22 0 37 5 50 18c12 12 11 12 42 60l275 417c13 20 16 26 16 36c0 15 -9 21 -33 21h-92v57h768v-255h-60c-1 66 -8 104 -26 137c-25 45 -53 57 -133 57h-210v-235h92c60 0 84 25 84 86v40h61v-315h-61v36c0 47 -4 63 -21 79c-14 13 -28 17 -64 17h-91v-253 h201c59 0 90 9 116 33c38 35 62 98 62 161c0 4 0 12 -1 22h56v-277h-652v57h44c54 0 66 10 66 59v170h-219l-97 -158c-19 -31 -23 -38 -23 -47c0 -16 17 -23 52 -23h56v-58h-291zM327 347h178v271z"/><glyph unicode="&#170;" horiz-adv-x="331" d="M104 365c-52 0 -88 32 -88 79c0 50 32 76 108 87c64 9 76 16 76 43c0 14 -7 28 -19 35c-6 4 -12 5 -38 10c-50 -6 -50 -6 -52 -9l-2 -2h-1l1 -2c0 -1 0 -1 1 -1l8 -4c6 -3 10 -13 10 -23c0 -21 -17 -36 -39 -36c-23 0 -39 17 -39 42c0 43 44 70 113 70 c84 0 118 -24 118 -83v-133c0 -18 5 -25 16 -25c14 0 17 10 17 53v27h36v-27c0 -49 -5 -68 -21 -81c-11 -9 -32 -16 -48 -16c-14 0 -35 6 -45 14c-4 3 -4 3 -17 32l-2 -1c-2 0 -3 0 -3 -1c-8 -8 -16 -17 -23 -25c-11 -12 -43 -23 -67 -23zM127 413c42 0 70 29 70 72v30 c-11 -5 -20 -9 -38 -14c-65 -19 -74 -26 -74 -52c0 -23 15 -36 42 -36zM21 283v40h306v-40h-306z"/><glyph unicode="&#216;" horiz-adv-x="804" d="M53 18l78 78c-55 69 -81 144 -81 235c0 124 56 239 147 300c53 35 119 53 201 53c105 0 175 -22 242 -78l76 72l35 -38l-75 -72c52 -65 78 -144 78 -234c0 -208 -141 -351 -347 -351c-98 0 -176 25 -240 77l-73 -75zM201 169l370 374c-22 23 -30 32 -42 41 c-30 25 -75 38 -123 38c-92 0 -170 -48 -206 -128c-19 -41 -29 -104 -29 -174c0 -63 9 -107 30 -151zM231 123c43 -51 102 -78 171 -78c146 0 231 108 231 294c0 63 -10 113 -31 155z"/><glyph unicode="&#338;" horiz-adv-x="1143" d="M49 323c0 212 138 357 340 357c30 0 62 -2 92 -6c54 -7 54 -7 102 -7h486v-246h-59v13c0 64 -17 113 -48 142c-23 21 -54 30 -107 30h-215v-233h97c61 0 81 28 81 112v17h61v-319h-61v22c0 54 -4 73 -20 92c-12 14 -26 18 -63 18h-95v-255l207 2c79 1 106 12 143 73 c18 29 27 80 29 145h60v-280h-503c-40 0 -40 -1 -100 -10c-30 -5 -63 -7 -92 -7c-207 0 -335 130 -335 340zM170 327c0 -173 87 -282 226 -282c48 0 89 13 113 36c19 18 23 33 23 95v348c0 36 -4 48 -19 62c-22 19 -69 32 -114 32c-61 0 -125 -27 -161 -69 c-44 -50 -68 -130 -68 -222z"/><glyph unicode="&#186;" horiz-adv-x="347" d="M175 367c-92 0 -151 56 -151 145c0 85 61 142 151 142c87 0 148 -59 148 -143c0 -87 -59 -144 -148 -144zM173 407c51 0 80 35 80 99c0 68 -28 108 -78 108c-52 0 -81 -38 -81 -107c0 -64 28 -100 79 -100zM29 283v40h290v-40h-290z"/><glyph unicode="&#230;" horiz-adv-x="846" d="M37 115c0 46 23 88 59 110c29 17 52 23 134 37c103 17 124 29 124 75c0 58 -38 87 -116 87c-39 0 -64 -7 -90 -26c24 -11 37 -28 37 -50c0 -32 -26 -57 -60 -57c-36 0 -62 28 -62 66c0 73 77 126 185 126c75 0 133 -21 166 -60c46 42 93 60 159 60c90 0 162 -38 202 -107 c17 -29 28 -80 28 -128v-20h-366c1 -56 8 -85 28 -114c28 -43 72 -66 124 -66c74 0 127 45 146 125h64c-11 -57 -27 -90 -61 -122c-46 -45 -103 -68 -169 -68c-92 0 -154 33 -199 107c-44 -68 -111 -107 -186 -107c-88 0 -147 53 -147 132zM440 285h256 c-2 86 -49 139 -124 139c-77 0 -121 -46 -132 -139zM142 123c0 -42 31 -68 81 -68c38 0 70 13 95 40s32 46 32 93v58c-40 -20 -58 -27 -94 -35c-54 -12 -77 -20 -92 -35c-14 -15 -22 -33 -22 -53z"/><glyph unicode="&#248;" horiz-adv-x="597" d="M44 9l60 59c-35 35 -58 103 -58 171c0 147 102 245 255 245c65 0 106 -13 162 -53l61 62l33 -33l-61 -62c23 -34 28 -42 33 -53c14 -29 22 -72 22 -113c0 -147 -101 -249 -247 -249c-33 0 -64 5 -107 17c-36 10 -42 13 -63 32l-58 -53zM171 133l231 239 c-17 33 -57 53 -103 53c-89 0 -143 -72 -143 -191c0 -44 4 -72 15 -101zM193 89c42 -38 62 -47 105 -47c91 0 143 65 143 180c0 42 -4 69 -15 105z"/><glyph unicode="&#339;" horiz-adv-x="934" d="M141 28c-60 41 -94 113 -94 202c0 152 98 253 245 253c85 0 148 -25 191 -77c38 51 99 77 179 77c142 0 235 -86 230 -225l-1 -28h-365c0 -112 56 -180 149 -180c77 0 127 42 148 123h65c-14 -58 -30 -90 -60 -122c-42 -43 -102 -68 -170 -68c-73 0 -137 30 -176 83 c-53 -58 -108 -83 -188 -83c-52 0 -112 18 -153 45zM529 287h256c1 5 1 11 1 13c0 72 -55 128 -125 128c-73 0 -124 -54 -132 -141zM195 84c21 -25 62 -42 102 -42c90 0 142 73 142 199c0 74 -14 117 -49 150c-25 24 -56 36 -91 36c-53 0 -91 -21 -114 -64 c-21 -38 -33 -88 -33 -137c0 -56 17 -111 43 -142z"/><glyph unicode="&#223;" horiz-adv-x="601" d="M27 0v53h29c50 0 57 8 57 63v377c0 67 13 105 47 136c35 31 88 47 155 47c124 0 199 -54 199 -143c0 -64 -31 -99 -111 -124c51 -11 77 -26 103 -59c31 -41 49 -97 49 -156c0 -123 -69 -211 -165 -211c-40 0 -74 15 -96 41c-19 23 -24 43 -24 93v45h53v-45 c0 -48 21 -75 57 -75c52 0 70 43 70 162c0 70 -14 108 -51 141c-27 23 -61 34 -101 34c-10 0 -16 0 -28 -2v57c14 -2 22 -2 32 -2c75 0 111 31 111 97c0 59 -37 93 -104 93c-68 0 -98 -39 -98 -129v-493h-184z"/><glyph unicode="&#172;" d="M33 178v88h433v-266h-98v178h-335z"/><glyph unicode="&#181;" d="M136 56v-226h-98v649h98v-263c0 -66 9 -93 36 -119c21 -19 49 -31 78 -31c34 0 64 15 85 41c23 29 31 59 31 116v256h97v-479h-97v72c-29 -59 -64 -84 -118 -84c-49 0 -83 21 -112 68z"/><glyph unicode="&#8482;" horiz-adv-x="993" d="M407 287v38h27c31 0 37 5 37 30v244c0 25 -6 30 -37 30h-27v38h168l118 -273l118 273h165v-38h-27c-31 0 -37 -5 -37 -30v-244c0 -25 6 -30 37 -30h27v-38h-201v38h27c31 0 37 5 37 30v251l-140 -319h-36l-143 319v-251c0 -25 6 -30 37 -30h27v-38h-177zM87 287v38h33 c32 0 38 5 38 30v271h-29c-66 0 -83 -21 -84 -107h-42v148h384v-148h-42c0 83 -18 107 -81 107h-31v-271c0 -25 6 -30 37 -30h34v-38h-217z"/><glyph unicode="&#208;" horiz-adv-x="788" d="M33 0v57h38c54 0 66 10 66 59v200h-104v61h104v174c0 49 -12 59 -66 59h-38v57h398c184 0 307 -129 307 -322c0 -213 -121 -345 -315 -345h-390zM245 61h158c138 0 214 98 214 277c0 177 -76 268 -225 268h-147v-229h180v-61h-180v-255z"/><glyph unicode="&#189;" horiz-adv-x="834" d="M187 0l401 667h59l-405 -667h-55zM77 267v38h51c25 0 32 8 32 34v203h-83v39c60 3 95 30 102 76h52v-318c0 -28 6 -34 32 -34h49v-38h-235zM496 0c0 113 16 133 166 207c31 16 48 41 48 70c0 40 -35 67 -85 67c-42 0 -66 -13 -79 -43c6 2 9 2 17 2c22 0 39 -16 39 -37 c0 -25 -20 -44 -48 -44c-33 0 -57 26 -57 62c0 60 63 108 142 108c88 0 149 -49 149 -119c0 -21 -6 -41 -17 -57c-23 -32 -45 -46 -115 -72c-72 -26 -96 -43 -105 -72c15 10 22 12 37 12c14 0 30 -3 64 -11c43 -10 52 -12 65 -12c28 0 42 21 42 61v14h40 c-2 -44 -2 -49 -4 -64c-5 -47 -34 -76 -79 -76c-21 0 -44 6 -75 19c-51 20 -59 23 -76 23c-16 0 -22 -7 -22 -26v-12h-47z"/><glyph unicode="&#177;" horiz-adv-x="567" d="M235 185v163h-168v91h168v163h98v-163h167v-91h-167v-163h-98zM67 52v91h433v-91h-433z"/><glyph unicode="&#222;" horiz-adv-x="669" d="M33 0v57h44c54 0 66 10 66 59v435c0 49 -12 59 -66 59h-44v57h328v-57h-44c-56 0 -70 -11 -67 -66l1 -19h193c77 0 116 -8 154 -33c48 -31 71 -80 71 -152c0 -65 -22 -116 -62 -143c-38 -26 -81 -35 -157 -35h-199v-46c0 -49 12 -59 65 -59h51v-57h-334zM251 223h163 c93 0 138 39 138 120c0 39 -14 73 -37 93s-53 28 -102 28h-162v-241z"/><glyph unicode="&#188;" horiz-adv-x="834" d="M187 0l401 667h59l-405 -667h-55zM77 267v38h51c25 0 32 8 32 34v203h-83v39c60 3 95 30 102 76h52v-318c0 -28 6 -34 32 -34h49v-38h-235zM491 110v46l193 234h49v-232h58v-48h-58v-38c0 -28 6 -34 36 -34h22v-38h-197v38h39c22 0 32 10 32 34v38h-174zM547 158h118v143 z"/><glyph unicode="&#247;" horiz-adv-x="567" d="M283 453c-33 0 -60 27 -60 60c0 34 27 61 61 61c33 0 60 -28 60 -61s-28 -60 -61 -60zM67 291v91h433v-91h-433zM223 159c0 34 27 61 61 61c33 0 60 -28 60 -61s-28 -60 -61 -60s-60 27 -60 60z"/><glyph unicode="&#166;" d="M201 328v339h98v-339h-98zM201 153h98v-320h-98v320z"/><glyph unicode="&#176;" horiz-adv-x="413" d="M207 372c-87 0 -156 70 -156 156c0 85 70 154 158 154c83 0 153 -71 153 -155c0 -86 -70 -155 -155 -155zM206 421c58 0 105 47 105 105c0 57 -47 105 -103 105c-60 0 -107 -46 -107 -104c0 -59 47 -106 105 -106z"/><glyph unicode="&#254;" horiz-adv-x="628" d="M120 -87v638c0 55 -7 63 -57 63h-36v53h191v-280c25 32 34 43 49 56c29 27 68 41 114 41c120 0 201 -96 201 -239c0 -151 -88 -262 -206 -262c-69 0 -113 25 -158 89v-159c0 -55 7 -63 57 -63h45v-53h-293v53h36c50 0 57 8 57 63zM213 230c0 -106 54 -176 134 -176 c81 0 130 71 130 188c0 108 -47 171 -127 171c-83 0 -137 -73 -137 -183z"/><glyph unicode="&#190;" horiz-adv-x="834" d="M187 0l401 667h60l-406 -667h-55zM163 259c-81 0 -136 39 -136 96c0 32 23 55 53 55c25 0 46 -19 46 -43c0 -11 -4 -22 -13 -29c-6 -6 -6 -6 -29 -11l-3 -1h1c10 -16 39 -26 72 -26c62 0 101 32 101 82c0 43 -35 70 -92 70c-9 0 -15 -1 -27 -3v43c10 -2 14 -2 19 -2 c57 0 89 24 89 67c0 34 -37 59 -85 59c-24 0 -63 -11 -66 -19l-1 -1s0 -1 1 -1l16 -4c10 -2 22 -20 22 -32c0 -22 -24 -42 -50 -42s-47 23 -47 52c0 50 62 91 138 91c84 0 150 -43 150 -99c0 -28 -18 -60 -37 -68c-20 -8 -34 -15 -34 -16s0 -1 -1 -1v-1l5 -2 c47 -19 50 -24 60 -40c10 -15 15 -32 15 -52c0 -74 -66 -122 -167 -122zM491 110v46l193 234h49v-232h58v-48h-58v-38c0 -28 6 -34 36 -34h22v-38h-197v38h39c22 0 32 10 32 34v38h-174zM547 158h118v143z"/><glyph unicode="&#174;" horiz-adv-x="769" d="M39 333c0 196 155 351 351 351c185 0 340 -159 340 -351c0 -193 -155 -350 -345 -350s-346 157 -346 350zM94 333c0 -165 131 -300 291 -300s290 135 290 300c0 164 -130 301 -286 301c-165 0 -295 -132 -295 -301zM190 143v38h23c32 0 38 5 38 30v244c0 24 -7 30 -38 30 h-23v38h238c43 0 67 -6 87 -22c21 -16 35 -46 35 -74c0 -30 -15 -57 -40 -73c-9 -7 -19 -11 -41 -19c41 -18 50 -36 52 -95c1 -44 6 -54 21 -54c14 0 19 9 19 31v45h40v-45c0 -31 -5 -48 -18 -60s-36 -20 -60 -20c-50 0 -71 23 -74 80c-4 62 -6 75 -20 89 c-12 12 -28 16 -51 16h-54v-111c0 -25 6 -30 37 -30h27v-38h-198zM324 363h76c45 0 71 22 71 61s-24 58 -74 58h-73v-119z"/><glyph unicode="&#240;" horiz-adv-x="598" d="M47 236c0 148 102 248 253 248c24 0 37 -2 65 -9c-20 36 -23 41 -58 92l-72 -30l-22 41l70 28c-16 23 -23 32 -47 61h69c6 -5 10 -8 11 -9l18 -19l9 -9l90 33l22 -41l-80 -31c40 -50 82 -111 108 -154c51 -85 69 -139 69 -204c0 -151 -99 -250 -250 -250 c-157 0 -255 98 -255 253zM200 84c24 -27 59 -42 99 -42c91 0 143 66 143 183c0 127 -51 200 -139 200c-93 0 -146 -71 -146 -197c0 -68 13 -111 43 -144z"/><glyph unicode="&#215;" horiz-adv-x="567" d="M140 129l-64 64l143 143l-143 143l64 65l144 -143l143 143l64 -65l-143 -143l143 -143l-64 -64l-143 143z"/><glyph unicode="&#169;" horiz-adv-x="769" d="M39 333c0 196 155 351 351 351c185 0 340 -159 340 -351c0 -193 -155 -350 -345 -350s-346 157 -346 350zM94 333c0 -165 131 -300 291 -300s290 135 290 300c0 164 -130 301 -286 301c-165 0 -295 -132 -295 -301zM170 329c0 119 83 203 202 203c52 0 85 -10 126 -40 l1 -1l18 36h39v-156h-40c-10 71 -59 115 -128 115c-81 0 -137 -63 -137 -155c0 -89 52 -148 132 -148c73 0 123 42 137 114h48c-11 -104 -81 -164 -190 -164c-125 0 -208 78 -208 196z"/><glyph unicode="&#193;" horiz-adv-x="757" d="M317 723l62 147h88c17 0 26 -6 26 -16c0 -6 -4 -12 -13 -21l-117 -110h-46zM-17 0v57h35c47 0 65 17 95 93l207 517h105l227 -531c23 -54 26 -53 32 -61c10 -12 27 -18 53 -18h36v-57h-325v57h56c36 0 48 6 48 22c0 7 -3 18 -9 31l-47 112h-281l-35 -86 c-5 -13 -9 -33 -9 -45c0 -25 15 -34 56 -34h52v-57h-296zM237 283h234l-123 286z"/><glyph unicode="&#194;" horiz-adv-x="757" d="M218 723l109 145h96l101 -145h-88l-72 84l-81 -84h-65zM-17 0v57h35c47 0 65 17 95 93l207 517h105l227 -531c23 -54 26 -53 32 -61c10 -12 27 -18 53 -18h36v-57h-325v57h56c36 0 48 6 48 22c0 7 -3 18 -9 31l-47 112h-281l-35 -86c-5 -13 -9 -33 -9 -45 c0 -25 15 -34 56 -34h52v-57h-296zM237 283h234l-123 286z"/><glyph unicode="&#196;" horiz-adv-x="757" d="M489 737c-32 0 -58 26 -58 58c0 31 26 57 58 57c31 0 57 -26 57 -57c0 -32 -26 -58 -57 -58zM256 737c-32 0 -58 26 -58 58c0 31 26 57 58 57c31 0 57 -26 57 -57c0 -32 -26 -58 -57 -58zM-17 0v57h35c47 0 65 17 95 93l207 517h105l227 -531c23 -54 26 -53 32 -61 c10 -12 27 -18 53 -18h36v-57h-325v57h56c36 0 48 6 48 22c0 7 -3 18 -9 31l-47 112h-281l-35 -86c-5 -13 -9 -33 -9 -45c0 -25 15 -34 56 -34h52v-57h-296zM237 283h234l-123 286z"/><glyph unicode="&#192;" horiz-adv-x="757" d="M383 723l-116 110c-9 9 -13 15 -13 21c0 10 9 16 26 16h87l63 -147h-47zM-17 0v57h35c47 0 65 17 95 93l207 517h105l227 -531c23 -54 26 -53 32 -61c10 -12 27 -18 53 -18h36v-57h-325v57h56c36 0 48 6 48 22c0 7 -3 18 -9 31l-47 112h-281l-35 -86 c-5 -13 -9 -33 -9 -45c0 -25 15 -34 56 -34h52v-57h-296zM237 283h234l-123 286z"/><glyph unicode="&#197;" horiz-adv-x="757" d="M372 707c-55 0 -99 44 -99 99c0 54 45 98 100 98c53 0 97 -45 97 -98c0 -55 -44 -99 -98 -99zM372 754c28 0 51 23 51 52c0 27 -23 51 -50 51c-29 0 -52 -23 -52 -51c0 -29 23 -52 51 -52zM-17 0v57h35c47 0 65 17 95 93l207 517h105l227 -531c23 -54 26 -53 32 -61 c10 -12 27 -18 53 -18h36v-57h-325v57h56c36 0 48 6 48 22c0 7 -3 18 -9 31l-47 112h-281l-35 -86c-5 -13 -9 -33 -9 -45c0 -25 15 -34 56 -34h52v-57h-296zM237 283h234l-123 286z"/><glyph unicode="&#195;" horiz-adv-x="757" d="M203 737c1 70 38 115 94 115c20 0 35 -4 76 -18c44 -16 64 -21 78 -21c22 0 33 13 37 44h51c-1 -68 -40 -115 -95 -115c-21 0 -47 6 -84 21c-43 17 -55 20 -69 20c-23 0 -31 -10 -37 -46h-51zM-17 0v57h35c47 0 65 17 95 93l207 517h105l227 -531c23 -54 26 -53 32 -61 c10 -12 27 -18 53 -18h36v-57h-325v57h56c36 0 48 6 48 22c0 7 -3 18 -9 31l-47 112h-281l-35 -86c-5 -13 -9 -33 -9 -45c0 -25 15 -34 56 -34h52v-57h-296zM237 283h234l-123 286z"/><glyph unicode="&#199;" horiz-adv-x="722" d="M298 -76l42 61c-178 19 -290 150 -290 341c0 110 37 206 107 274c60 57 127 83 216 83c87 0 134 -17 209 -76l30 67h55v-267h-55c-14 122 -100 204 -213 204c-135 0 -228 -115 -228 -281c0 -164 87 -270 221 -270c117 0 205 78 227 203h66c-15 -173 -140 -287 -307 -280 l-27 -39c17 3 24 4 35 4c46 0 78 -27 78 -65c0 -46 -45 -79 -107 -79c-34 0 -62 6 -99 21l15 32c29 -11 51 -16 74 -16c31 0 53 16 53 38s-19 37 -46 37c-12 0 -22 -2 -39 -9z"/><glyph unicode="&#201;" horiz-adv-x="753" d="M335 723l62 147h88c17 0 26 -6 26 -16c0 -6 -4 -12 -13 -21l-117 -110h-46zM33 0v57h44c54 0 66 10 66 59v435c0 49 -12 59 -66 59h-44v57h645v-249h-59v18c0 111 -47 170 -136 170h-232v-231h97c54 0 81 27 81 83v44h59v-315h-59v34c0 68 -24 97 -79 97h-99v-257h188 c104 0 150 19 170 70c13 33 16 60 19 154h61v-285h-656z"/><glyph unicode="&#202;" horiz-adv-x="753" d="M243 723l109 145h96l101 -145h-88l-72 84l-81 -84h-65zM33 0v57h44c54 0 66 10 66 59v435c0 49 -12 59 -66 59h-44v57h645v-249h-59v18c0 111 -47 170 -136 170h-232v-231h97c54 0 81 27 81 83v44h59v-315h-59v34c0 68 -24 97 -79 97h-99v-257h188c104 0 150 19 170 70 c13 33 16 60 19 154h61v-285h-656z"/><glyph unicode="&#203;" horiz-adv-x="753" d="M510 737c-32 0 -58 26 -58 58c0 31 26 57 58 57c31 0 57 -26 57 -57c0 -32 -26 -58 -57 -58zM277 737c-32 0 -58 26 -58 58c0 31 26 57 58 57c31 0 57 -26 57 -57c0 -32 -26 -58 -57 -58zM33 0v57h44c54 0 66 10 66 59v435c0 49 -12 59 -66 59h-44v57h645v-249h-59v18 c0 111 -47 170 -136 170h-232v-231h97c54 0 81 27 81 83v44h59v-315h-59v34c0 68 -24 97 -79 97h-99v-257h188c104 0 150 19 170 70c13 33 16 60 19 154h61v-285h-656z"/><glyph unicode="&#200;" horiz-adv-x="753" d="M377 723l-116 110c-9 9 -13 15 -13 21c0 10 9 16 26 16h87l63 -147h-47zM33 0v57h44c54 0 66 10 66 59v435c0 49 -12 59 -66 59h-44v57h645v-249h-59v18c0 111 -47 170 -136 170h-232v-231h97c54 0 81 27 81 83v44h59v-315h-59v34c0 68 -24 97 -79 97h-99v-257h188 c104 0 150 19 170 70c13 33 16 60 19 154h61v-285h-656z"/><glyph unicode="&#205;" horiz-adv-x="395" d="M149 723l62 147h88c17 0 26 -6 26 -16c0 -6 -4 -12 -13 -21l-117 -110h-46zM40 0v57h44c54 0 66 10 66 59v435c0 49 -12 59 -66 59h-44v57h328v-57h-44c-54 0 -66 -10 -66 -59v-435c0 -49 12 -59 66 -59h44v-57h-328z"/><glyph unicode="&#206;" horiz-adv-x="395" d="M44 723l109 145h96l101 -145h-88l-72 84l-81 -84h-65zM33 0v57h44c54 0 66 10 66 59v435c0 49 -12 59 -66 59h-44v57h328v-57h-44c-54 0 -66 -10 -66 -59v-435c0 -49 12 -59 66 -59h44v-57h-328z"/><glyph unicode="&#207;" horiz-adv-x="395" d="M281 737c-32 0 -58 26 -58 58c0 31 26 57 58 57c31 0 57 -26 57 -57c0 -32 -26 -58 -57 -58zM114 737c-32 0 -58 26 -58 58c0 31 26 57 58 57c31 0 57 -26 57 -57c0 -32 -26 -58 -57 -58zM33 0v57h44c54 0 66 10 66 59v435c0 49 -12 59 -66 59h-44v57h328v-57h-44 c-54 0 -66 -10 -66 -59v-435c0 -49 12 -59 66 -59h44v-57h-328z"/><glyph unicode="&#204;" horiz-adv-x="395" d="M199 723l-116 110c-9 9 -13 15 -13 21c0 10 9 16 26 16h87l63 -147h-47zM27 0v57h44c54 0 66 10 66 59v435c0 49 -12 59 -66 59h-44v57h328v-57h-44c-54 0 -66 -10 -66 -59v-435c0 -49 12 -59 66 -59h44v-57h-328z"/><glyph unicode="&#209;" horiz-adv-x="823" d="M258 737c1 70 38 115 94 115c20 0 35 -4 76 -18c44 -16 64 -21 78 -21c22 0 33 13 37 44h51c-1 -68 -40 -115 -95 -115c-21 0 -47 6 -84 21c-43 17 -55 20 -69 20c-23 0 -31 -10 -37 -46h-51zM33 0v57h38c54 0 66 10 66 59v435c0 49 -12 59 -66 59h-38v57h228l370 -500 v384c0 49 -12 59 -66 59h-44v57h275v-57h-30c-54 0 -66 -10 -66 -59v-551h-81l-413 553v-437c0 -49 12 -59 66 -59h44v-57h-283z"/><glyph unicode="&#211;" horiz-adv-x="803" d="M354 723l62 147h88c17 0 26 -6 26 -16c0 -6 -4 -12 -13 -21l-117 -110h-46zM174 54c-80 63 -124 161 -124 275c0 126 54 239 143 299c56 38 124 56 210 56c76 0 149 -19 202 -53c93 -59 148 -169 148 -297c0 -120 -48 -225 -133 -287c-58 -43 -129 -64 -219 -64 c-94 0 -167 23 -227 71zM231 120c42 -48 102 -75 169 -75c146 0 232 109 232 292c0 102 -29 179 -87 231c-39 36 -86 54 -138 54c-72 0 -131 -26 -174 -77c-42 -49 -62 -120 -62 -218c0 -95 18 -157 60 -207z"/><glyph unicode="&#212;" horiz-adv-x="803" d="M252 723l109 145h96l101 -145h-88l-72 84l-81 -84h-65zM174 54c-80 63 -124 161 -124 275c0 126 54 239 143 299c56 38 124 56 210 56c76 0 149 -19 202 -53c93 -59 148 -169 148 -297c0 -120 -48 -225 -133 -287c-58 -43 -129 -64 -219 -64c-94 0 -167 23 -227 71z M231 120c42 -48 102 -75 169 -75c146 0 232 109 232 292c0 102 -29 179 -87 231c-39 36 -86 54 -138 54c-72 0 -131 -26 -174 -77c-42 -49 -62 -120 -62 -218c0 -95 18 -157 60 -207z"/><glyph unicode="&#214;" horiz-adv-x="803" d="M520 737c-32 0 -58 26 -58 58c0 31 26 57 58 57c31 0 57 -26 57 -57c0 -32 -26 -58 -57 -58zM287 737c-32 0 -58 26 -58 58c0 31 26 57 58 57c31 0 57 -26 57 -57c0 -32 -26 -58 -57 -58zM174 54c-80 63 -124 161 -124 275c0 126 54 239 143 299c56 38 124 56 210 56 c76 0 149 -19 202 -53c93 -59 148 -169 148 -297c0 -120 -48 -225 -133 -287c-58 -43 -129 -64 -219 -64c-94 0 -167 23 -227 71zM231 120c42 -48 102 -75 169 -75c146 0 232 109 232 292c0 102 -29 179 -87 231c-39 36 -86 54 -138 54c-72 0 -131 -26 -174 -77 c-42 -49 -62 -120 -62 -218c0 -95 18 -157 60 -207z"/><glyph unicode="&#210;" horiz-adv-x="803" d="M403 723l-116 110c-9 9 -13 15 -13 21c0 10 9 16 26 16h87l63 -147h-47zM174 54c-80 63 -124 161 -124 275c0 126 54 239 143 299c56 38 124 56 210 56c76 0 149 -19 202 -53c93 -59 148 -169 148 -297c0 -120 -48 -225 -133 -287c-58 -43 -129 -64 -219 -64 c-94 0 -167 23 -227 71zM231 120c42 -48 102 -75 169 -75c146 0 232 109 232 292c0 102 -29 179 -87 231c-39 36 -86 54 -138 54c-72 0 -131 -26 -174 -77c-42 -49 -62 -120 -62 -218c0 -95 18 -157 60 -207z"/><glyph unicode="&#213;" horiz-adv-x="803" d="M239 737c1 70 38 115 94 115c20 0 35 -4 76 -18c44 -16 64 -21 78 -21c22 0 33 13 37 44h51c-1 -68 -40 -115 -95 -115c-21 0 -47 6 -84 21c-43 17 -55 20 -69 20c-23 0 -31 -10 -37 -46h-51zM174 54c-80 63 -124 161 -124 275c0 126 54 239 143 299c56 38 124 56 210 56 c76 0 149 -19 202 -53c93 -59 148 -169 148 -297c0 -120 -48 -225 -133 -287c-58 -43 -129 -64 -219 -64c-94 0 -167 23 -227 71zM231 120c42 -48 102 -75 169 -75c146 0 232 109 232 292c0 102 -29 179 -87 231c-39 36 -86 54 -138 54c-72 0 -131 -26 -174 -77 c-42 -49 -62 -120 -62 -218c0 -95 18 -157 60 -207z"/><glyph unicode="&#218;" horiz-adv-x="776" d="M356 723l62 147h88c17 0 26 -6 26 -16c0 -6 -4 -12 -13 -21l-117 -110h-46zM178 51c-40 39 -57 89 -57 166v334c0 49 -12 59 -66 59h-38v57h320v-57h-38c-54 0 -66 -10 -66 -59v-340c0 -58 15 -93 50 -117c32 -23 75 -35 125 -35c57 0 106 17 136 47c31 31 43 72 43 147 v298c0 49 -12 59 -66 59h-44v57h283v-57h-38c-54 0 -66 -10 -66 -59v-340c0 -71 -22 -122 -68 -165c-49 -44 -106 -63 -195 -63c-97 0 -167 22 -215 68z"/><glyph unicode="&#219;" horiz-adv-x="776" d="M250 723l109 145h96l101 -145h-88l-72 84l-81 -84h-65zM178 51c-40 39 -57 89 -57 166v334c0 49 -12 59 -66 59h-38v57h320v-57h-38c-54 0 -66 -10 -66 -59v-340c0 -58 15 -93 50 -117c32 -23 75 -35 125 -35c57 0 106 17 136 47c31 31 43 72 43 147v298 c0 49 -12 59 -66 59h-44v57h283v-57h-38c-54 0 -66 -10 -66 -59v-340c0 -71 -22 -122 -68 -165c-49 -44 -106 -63 -195 -63c-97 0 -167 22 -215 68z"/><glyph unicode="&#220;" horiz-adv-x="776" d="M528 737c-32 0 -58 26 -58 58c0 31 26 57 58 57c31 0 57 -26 57 -57c0 -32 -26 -58 -57 -58zM295 737c-32 0 -58 26 -58 58c0 31 26 57 58 57c31 0 57 -26 57 -57c0 -32 -26 -58 -57 -58zM178 51c-40 39 -57 89 -57 166v334c0 49 -12 59 -66 59h-38v57h320v-57h-38 c-54 0 -66 -10 -66 -59v-340c0 -58 15 -93 50 -117c32 -23 75 -35 125 -35c57 0 106 17 136 47c31 31 43 72 43 147v298c0 49 -12 59 -66 59h-44v57h283v-57h-38c-54 0 -66 -10 -66 -59v-340c0 -71 -22 -122 -68 -165c-49 -44 -106 -63 -195 -63c-97 0 -167 22 -215 68z"/><glyph unicode="&#217;" horiz-adv-x="776" d="M411 723l-116 110c-9 9 -13 15 -13 21c0 10 9 16 26 16h87l63 -147h-47zM178 51c-40 39 -57 89 -57 166v334c0 49 -12 59 -66 59h-38v57h320v-57h-38c-54 0 -66 -10 -66 -59v-340c0 -58 15 -93 50 -117c32 -23 75 -35 125 -35c57 0 106 17 136 47c31 31 43 72 43 147v298 c0 49 -12 59 -66 59h-44v57h283v-57h-38c-54 0 -66 -10 -66 -59v-340c0 -71 -22 -122 -68 -165c-49 -44 -106 -63 -195 -63c-97 0 -167 22 -215 68z"/><glyph unicode="&#221;" horiz-adv-x="696" d="M327 723l62 147h88c17 0 26 -6 26 -16c0 -6 -4 -12 -13 -21l-117 -110h-46zM190 0v57h53c54 0 66 10 66 59v147l-214 299c-29 40 -42 49 -74 49h-31v56h328v-56h-64c-27 0 -37 -6 -37 -22c0 -8 1 -10 14 -29l154 -217l124 189c22 33 28 47 28 59c0 13 -12 20 -36 20h-62 v56h267v-56h-30c-32 0 -39 -6 -76 -63l-183 -278v-154c0 -49 11 -59 65 -59h56v-57h-348z"/><glyph unicode="&#376;" horiz-adv-x="696" d="M493 737c-32 0 -58 26 -58 58c0 31 26 57 58 57c31 0 57 -26 57 -57c0 -32 -26 -58 -57 -58zM260 737c-32 0 -58 26 -58 58c0 31 26 57 58 57c31 0 57 -26 57 -57c0 -32 -26 -58 -57 -58zM190 0v57h53c54 0 66 10 66 59v147l-214 299c-29 40 -42 49 -74 49h-31v56h328 v-56h-64c-27 0 -37 -6 -37 -22c0 -8 1 -10 14 -29l154 -217l124 189c22 33 28 47 28 59c0 13 -12 20 -36 20h-62v56h267v-56h-30c-32 0 -39 -6 -76 -63l-183 -278v-154c0 -49 11 -59 65 -59h56v-57h-348z"/><glyph unicode="&#225;" horiz-adv-x="570" d="M215 523l62 146h88c17 0 26 -6 26 -16c0 -6 -4 -12 -13 -20l-117 -110h-46zM37 115c0 90 48 130 179 150c113 17 134 29 134 79c0 58 -38 88 -112 88c-42 0 -75 -10 -97 -31c28 -5 41 -19 41 -46c0 -34 -26 -59 -61 -59c-37 0 -61 27 -61 68c0 30 13 56 39 78 c37 30 79 42 150 42c77 0 132 -15 163 -43c25 -23 33 -48 33 -98v-238c0 -34 10 -50 32 -50c30 0 36 18 36 101v41h51v-41c0 -77 -5 -104 -23 -129c-18 -24 -52 -38 -90 -38c-62 0 -96 30 -104 94c-47 -71 -96 -100 -165 -100c-92 0 -145 48 -145 132zM142 123 c0 -43 29 -69 77 -69c39 0 73 16 98 44c23 26 30 48 30 90v64c-24 -13 -37 -18 -73 -29c-67 -20 -85 -27 -102 -38c-21 -14 -30 -33 -30 -62z"/><glyph unicode="&#226;" horiz-adv-x="570" d="M106 523l109 145h96l101 -145h-88l-72 85l-81 -85h-65zM37 115c0 90 48 130 179 150c113 17 134 29 134 79c0 58 -38 88 -112 88c-42 0 -75 -10 -97 -31c28 -5 41 -19 41 -46c0 -34 -26 -59 -61 -59c-37 0 -61 27 -61 68c0 30 13 56 39 78c37 30 79 42 150 42 c77 0 132 -15 163 -43c25 -23 33 -48 33 -98v-238c0 -34 10 -50 32 -50c30 0 36 18 36 101v41h51v-41c0 -77 -5 -104 -23 -129c-18 -24 -52 -38 -90 -38c-62 0 -96 30 -104 94c-47 -71 -96 -100 -165 -100c-92 0 -145 48 -145 132zM142 123c0 -43 29 -69 77 -69 c39 0 73 16 98 44c23 26 30 48 30 90v64c-24 -13 -37 -18 -73 -29c-67 -20 -85 -27 -102 -38c-21 -14 -30 -33 -30 -62z"/><glyph unicode="&#228;" horiz-adv-x="570" d="M364 544c-32 0 -58 26 -58 58c0 31 26 57 58 57c31 0 57 -26 57 -57c0 -32 -26 -58 -57 -58zM162 544c-32 0 -58 26 -58 58c0 31 26 57 58 57c31 0 57 -26 57 -57c0 -32 -26 -58 -57 -58zM37 115c0 90 48 130 179 150c113 17 134 29 134 79c0 58 -38 88 -112 88 c-42 0 -75 -10 -97 -31c28 -5 41 -19 41 -46c0 -34 -26 -59 -61 -59c-37 0 -61 27 -61 68c0 30 13 56 39 78c37 30 79 42 150 42c77 0 132 -15 163 -43c25 -23 33 -48 33 -98v-238c0 -34 10 -50 32 -50c30 0 36 18 36 101v41h51v-41c0 -77 -5 -104 -23 -129 c-18 -24 -52 -38 -90 -38c-62 0 -96 30 -104 94c-47 -71 -96 -100 -165 -100c-92 0 -145 48 -145 132zM142 123c0 -43 29 -69 77 -69c39 0 73 16 98 44c23 26 30 48 30 90v64c-24 -13 -37 -18 -73 -29c-67 -20 -85 -27 -102 -38c-21 -14 -30 -33 -30 -62z"/><glyph unicode="&#224;" horiz-adv-x="570" d="M267 523l-116 110c-9 8 -13 14 -13 20c0 10 9 16 26 16h87l63 -146h-47zM37 115c0 90 48 130 179 150c113 17 134 29 134 79c0 58 -38 88 -112 88c-42 0 -75 -10 -97 -31c28 -5 41 -19 41 -46c0 -34 -26 -59 -61 -59c-37 0 -61 27 -61 68c0 30 13 56 39 78 c37 30 79 42 150 42c77 0 132 -15 163 -43c25 -23 33 -48 33 -98v-238c0 -34 10 -50 32 -50c30 0 36 18 36 101v41h51v-41c0 -77 -5 -104 -23 -129c-18 -24 -52 -38 -90 -38c-62 0 -96 30 -104 94c-47 -71 -96 -100 -165 -100c-92 0 -145 48 -145 132zM142 123 c0 -43 29 -69 77 -69c39 0 73 16 98 44c23 26 30 48 30 90v64c-24 -13 -37 -18 -73 -29c-67 -20 -85 -27 -102 -38c-21 -14 -30 -33 -30 -62z"/><glyph unicode="&#229;" horiz-adv-x="570" d="M261 516c-55 0 -99 44 -99 99c0 54 45 98 100 98c53 0 97 -45 97 -98c0 -55 -44 -99 -98 -99zM261 563c28 0 51 23 51 52c0 27 -23 51 -50 51c-29 0 -52 -23 -52 -51c0 -29 23 -52 51 -52zM37 115c0 90 48 130 179 150c113 17 134 29 134 79c0 58 -38 88 -112 88 c-42 0 -75 -10 -97 -31c28 -5 41 -19 41 -46c0 -34 -26 -59 -61 -59c-37 0 -61 27 -61 68c0 30 13 56 39 78c37 30 79 42 150 42c77 0 132 -15 163 -43c25 -23 33 -48 33 -98v-238c0 -34 10 -50 32 -50c30 0 36 18 36 101v41h51v-41c0 -77 -5 -104 -23 -129 c-18 -24 -52 -38 -90 -38c-62 0 -96 30 -104 94c-47 -71 -96 -100 -165 -100c-92 0 -145 48 -145 132zM142 123c0 -43 29 -69 77 -69c39 0 73 16 98 44c23 26 30 48 30 90v64c-24 -13 -37 -18 -73 -29c-67 -20 -85 -27 -102 -38c-21 -14 -30 -33 -30 -62z"/><glyph unicode="&#227;" horiz-adv-x="570" d="M96 538c1 69 38 114 94 114c20 0 36 -4 76 -19c44 -16 64 -21 78 -21c21 0 32 12 37 44h51c-2 -67 -41 -115 -95 -115c-21 0 -47 7 -84 21c-43 17 -55 21 -69 21c-23 0 -30 -9 -37 -45h-51zM37 115c0 90 48 130 179 150c113 17 134 29 134 79c0 58 -38 88 -112 88 c-42 0 -75 -10 -97 -31c28 -5 41 -19 41 -46c0 -34 -26 -59 -61 -59c-37 0 -61 27 -61 68c0 30 13 56 39 78c37 30 79 42 150 42c77 0 132 -15 163 -43c25 -23 33 -48 33 -98v-238c0 -34 10 -50 32 -50c30 0 36 18 36 101v41h51v-41c0 -77 -5 -104 -23 -129 c-18 -24 -52 -38 -90 -38c-62 0 -96 30 -104 94c-47 -71 -96 -100 -165 -100c-92 0 -145 48 -145 132zM142 123c0 -43 29 -69 77 -69c39 0 73 16 98 44c23 26 30 48 30 90v64c-24 -13 -37 -18 -73 -29c-67 -20 -85 -27 -102 -38c-21 -14 -30 -33 -30 -62z"/><glyph unicode="&#231;" horiz-adv-x="544" d="M135 28c-58 44 -88 113 -88 202c0 157 94 254 245 254c119 0 202 -57 202 -138c0 -46 -30 -79 -72 -79c-38 0 -65 26 -65 64c0 29 13 45 41 49c5 1 8 3 8 7c0 19 -54 40 -103 40c-93 0 -150 -72 -150 -192c0 -114 58 -186 150 -186c74 0 127 53 143 143h58 c-17 -132 -100 -212 -215 -208l-27 -40c17 3 25 4 36 4c46 0 78 -27 78 -65c0 -46 -45 -79 -108 -79c-33 0 -63 6 -99 21l15 32c29 -11 52 -16 75 -16c31 0 53 16 53 38s-19 37 -46 37c-12 0 -23 -2 -39 -9l-18 17l43 61c-54 6 -83 17 -117 43z"/><glyph unicode="&#233;" horiz-adv-x="558" d="M239 523l62 146h88c17 0 26 -6 26 -16c0 -6 -4 -12 -13 -20l-117 -110h-46zM179 115c25 -41 68 -64 120 -64c76 0 132 46 150 123h64c-26 -123 -108 -191 -231 -191c-143 0 -235 99 -235 253c0 150 95 248 241 248c88 0 161 -38 199 -104c21 -35 28 -73 28 -151h-361 c1 -54 9 -86 25 -114zM154 286h255c-1 42 -6 63 -21 87c-20 33 -62 55 -104 55c-71 0 -122 -56 -130 -142z"/><glyph unicode="&#234;" horiz-adv-x="558" d="M145 523l109 145h96l101 -145h-88l-72 85l-81 -85h-65zM179 115c25 -41 68 -64 120 -64c76 0 132 46 150 123h64c-26 -123 -108 -191 -231 -191c-143 0 -235 99 -235 253c0 150 95 248 241 248c88 0 161 -38 199 -104c21 -35 28 -73 28 -151h-361c1 -54 9 -86 25 -114z M154 286h255c-1 42 -6 63 -21 87c-20 33 -62 55 -104 55c-71 0 -122 -56 -130 -142z"/><glyph unicode="&#235;" horiz-adv-x="558" d="M398 544c-32 0 -58 26 -58 58c0 31 26 57 58 57c31 0 57 -26 57 -57c0 -32 -26 -58 -57 -58zM196 544c-32 0 -58 26 -58 58c0 31 26 57 58 57c31 0 57 -26 57 -57c0 -32 -26 -58 -57 -58zM179 115c25 -41 68 -64 120 -64c76 0 132 46 150 123h64 c-26 -123 -108 -191 -231 -191c-143 0 -235 99 -235 253c0 150 95 248 241 248c88 0 161 -38 199 -104c21 -35 28 -73 28 -151h-361c1 -54 9 -86 25 -114zM154 286h255c-1 42 -6 63 -21 87c-20 33 -62 55 -104 55c-71 0 -122 -56 -130 -142z"/><glyph unicode="&#232;" horiz-adv-x="558" d="M291 523l-116 110c-9 8 -13 14 -13 20c0 10 9 16 26 16h87l63 -146h-47zM179 115c25 -41 68 -64 120 -64c76 0 132 46 150 123h64c-26 -123 -108 -191 -231 -191c-143 0 -235 99 -235 253c0 150 95 248 241 248c88 0 161 -38 199 -104c21 -35 28 -73 28 -151h-361 c1 -54 9 -86 25 -114zM154 286h255c-1 42 -6 63 -21 87c-20 33 -62 55 -104 55c-71 0 -122 -56 -130 -142z"/><glyph unicode="&#237;" horiz-adv-x="346" d="M119 523l62 146h88c17 0 26 -6 26 -16c0 -6 -4 -12 -13 -20l-117 -110h-46zM30 0v53h42c50 0 57 8 57 63v235c0 55 -7 63 -57 63h-42v53h197v-351c0 -55 7 -63 57 -63h36v-53h-290z"/><glyph unicode="&#238;" horiz-adv-x="346" d="M14 523l96 145h96l88 -145h-89l-58 85l-68 -85h-65zM30 0v53h42c50 0 57 8 57 63v235c0 55 -7 63 -57 63h-42v53h197v-351c0 -55 7 -63 57 -63h36v-53h-290z"/><glyph unicode="&#239;" horiz-adv-x="346" d="M234 544c-32 0 -58 26 -58 58c0 31 26 57 58 57c31 0 57 -26 57 -57c0 -32 -26 -58 -57 -58zM67 544c-32 0 -58 26 -58 58c0 31 26 57 58 57c31 0 57 -26 57 -57c0 -32 -26 -58 -57 -58zM30 0v53h42c50 0 57 8 57 63v235c0 55 -7 63 -57 63h-42v53h197v-351 c0 -55 7 -63 57 -63h36v-53h-290z"/><glyph unicode="&#236;" horiz-adv-x="346" d="M161 523l-116 110c-9 8 -13 14 -13 20c0 10 9 16 26 16h87l63 -146h-47zM30 0v53h42c50 0 57 8 57 63v235c0 55 -7 63 -57 63h-42v53h197v-351c0 -55 7 -63 57 -63h36v-53h-290z"/><glyph unicode="&#241;" horiz-adv-x="661" d="M164 538c1 69 38 114 94 114c20 0 36 -4 76 -19c44 -16 64 -21 78 -21c21 0 32 12 37 44h51c-2 -67 -41 -115 -95 -115c-21 0 -47 7 -84 21c-43 17 -55 21 -69 21c-23 0 -30 -9 -37 -45h-51zM30 0v53h36c50 0 57 8 57 63v235c0 55 -7 63 -57 63h-36v53h191l-4 -75 c54 69 97 92 170 92c49 0 91 -15 120 -41c30 -27 42 -60 42 -114v-213c0 -55 7 -63 57 -63h29v-53h-273v53h29c50 0 57 8 57 63v192c0 45 -7 66 -28 85c-16 16 -37 23 -66 23c-79 0 -133 -48 -133 -119v-181c0 -55 7 -63 57 -63h29v-53h-277z"/><glyph unicode="&#243;" horiz-adv-x="598" d="M245 523l62 146h88c17 0 26 -6 26 -16c0 -6 -4 -12 -13 -20l-117 -110h-46zM47 235c0 150 102 249 256 249c146 0 249 -103 249 -250c0 -152 -99 -251 -250 -251c-156 0 -255 98 -255 252zM200 84c24 -27 59 -42 99 -42c91 0 143 66 143 183c0 127 -51 200 -139 200 c-93 0 -146 -71 -146 -197c0 -68 13 -111 43 -144z"/><glyph unicode="&#244;" horiz-adv-x="598" d="M150 523l109 145h96l101 -145h-88l-72 85l-81 -85h-65zM47 235c0 150 102 249 256 249c146 0 249 -103 249 -250c0 -152 -99 -251 -250 -251c-156 0 -255 98 -255 252zM200 84c24 -27 59 -42 99 -42c91 0 143 66 143 183c0 127 -51 200 -139 200 c-93 0 -146 -71 -146 -197c0 -68 13 -111 43 -144z"/><glyph unicode="&#246;" horiz-adv-x="598" d="M401 544c-32 0 -58 26 -58 58c0 31 26 57 58 57c31 0 57 -26 57 -57c0 -32 -26 -58 -57 -58zM199 544c-32 0 -58 26 -58 58c0 31 26 57 58 57c31 0 57 -26 57 -57c0 -32 -26 -58 -57 -58zM47 235c0 150 102 249 256 249c146 0 249 -103 249 -250 c0 -152 -99 -251 -250 -251c-156 0 -255 98 -255 252zM200 84c24 -27 59 -42 99 -42c91 0 143 66 143 183c0 127 -51 200 -139 200c-93 0 -146 -71 -146 -197c0 -68 13 -111 43 -144z"/><glyph unicode="&#242;" horiz-adv-x="598" d="M308 523l-116 110c-9 8 -13 14 -13 20c0 10 9 16 26 16h87l63 -146h-47zM47 235c0 150 102 249 256 249c146 0 249 -103 249 -250c0 -152 -99 -251 -250 -251c-156 0 -255 98 -255 252zM200 84c24 -27 59 -42 99 -42c91 0 143 66 143 183c0 127 -51 200 -139 200 c-93 0 -146 -71 -146 -197c0 -68 13 -111 43 -144z"/><glyph unicode="&#245;" horiz-adv-x="598" d="M136 538c1 69 38 114 94 114c20 0 36 -4 76 -19c44 -16 64 -21 78 -21c21 0 32 12 37 44h51c-2 -67 -41 -115 -95 -115c-21 0 -47 7 -84 21c-43 17 -55 21 -69 21c-23 0 -30 -9 -37 -45h-51zM47 235c0 150 102 249 256 249c146 0 249 -103 249 -250 c0 -152 -99 -251 -250 -251c-156 0 -255 98 -255 252zM200 84c24 -27 59 -42 99 -42c91 0 143 66 143 183c0 127 -51 200 -139 200c-93 0 -146 -71 -146 -197c0 -68 13 -111 43 -144z"/><glyph unicode="&#250;" horiz-adv-x="652" d="M278 523l62 146h88c17 0 26 -6 26 -16c0 -6 -4 -12 -13 -20l-117 -110h-46zM154 24c-26 26 -34 55 -34 124v203c0 55 -7 63 -57 63h-36v53h191v-305c0 -51 7 -73 29 -90c16 -12 42 -20 69 -20c72 0 126 53 126 124v175c0 55 -7 63 -57 63h-36v53h191v-351 c0 -55 7 -63 57 -63h29v-53h-184v78c-38 -66 -88 -95 -165 -95c-55 0 -97 14 -123 41z"/><glyph unicode="&#251;" horiz-adv-x="652" d="M166 523l109 145h96l101 -145h-88l-72 85l-81 -85h-65zM154 24c-26 26 -34 55 -34 124v203c0 55 -7 63 -57 63h-36v53h191v-305c0 -51 7 -73 29 -90c16 -12 42 -20 69 -20c72 0 126 53 126 124v175c0 55 -7 63 -57 63h-36v53h191v-351c0 -55 7 -63 57 -63h29v-53h-184v78 c-38 -66 -88 -95 -165 -95c-55 0 -97 14 -123 41z"/><glyph unicode="&#252;" horiz-adv-x="652" d="M421 544c-32 0 -58 26 -58 58c0 31 26 57 58 57c31 0 57 -26 57 -57c0 -32 -26 -58 -57 -58zM219 544c-32 0 -58 26 -58 58c0 31 26 57 58 57c31 0 57 -26 57 -57c0 -32 -26 -58 -57 -58zM154 24c-26 26 -34 55 -34 124v203c0 55 -7 63 -57 63h-36v53h191v-305 c0 -51 7 -73 29 -90c16 -12 42 -20 69 -20c72 0 126 53 126 124v175c0 55 -7 63 -57 63h-36v53h191v-351c0 -55 7 -63 57 -63h29v-53h-184v78c-38 -66 -88 -95 -165 -95c-55 0 -97 14 -123 41z"/><glyph unicode="&#249;" horiz-adv-x="652" d="M324 523l-116 110c-9 8 -13 14 -13 20c0 10 9 16 26 16h87l63 -146h-47zM154 24c-26 26 -34 55 -34 124v203c0 55 -7 63 -57 63h-36v53h191v-305c0 -51 7 -73 29 -90c16 -12 42 -20 69 -20c72 0 126 53 126 124v175c0 55 -7 63 -57 63h-36v53h191v-351 c0 -55 7 -63 57 -63h29v-53h-184v78c-38 -66 -88 -95 -165 -95c-55 0 -97 14 -123 41z"/><glyph unicode="&#253;" horiz-adv-x="548" d="M240 523l62 146h88c17 0 26 -6 26 -16c0 -6 -4 -12 -13 -20l-117 -110h-46zM61 -13c36 0 63 -26 63 -61c0 -38 -23 -59 -65 -59c16 -16 29 -22 55 -22c58 0 94 35 132 128l-163 384c-18 43 -34 56 -68 56h-26v54h271v-54h-43c-27 0 -39 -5 -39 -18c0 -7 5 -24 11 -38 l111 -260l108 260c6 15 8 24 8 32c0 17 -10 24 -34 24h-46v54h225v-54h-25c-31 0 -37 -6 -64 -69l-162 -376c-36 -84 -55 -113 -90 -140c-28 -22 -61 -32 -106 -32c-79 0 -127 41 -127 108c0 49 30 83 74 83z"/><glyph unicode="&#255;" horiz-adv-x="548" d="M396 544c-32 0 -58 26 -58 58c0 31 26 57 58 57c31 0 57 -26 57 -57c0 -32 -26 -58 -57 -58zM194 544c-32 0 -58 26 -58 58c0 31 26 57 58 57c31 0 57 -26 57 -57c0 -32 -26 -58 -57 -58zM61 -13c36 0 63 -26 63 -61c0 -38 -23 -59 -65 -59c16 -16 29 -22 55 -22 c58 0 94 35 132 128l-163 384c-18 43 -34 56 -68 56h-26v54h271v-54h-43c-27 0 -39 -5 -39 -18c0 -7 5 -24 11 -38l111 -260l108 260c6 15 8 24 8 32c0 17 -10 24 -34 24h-46v54h225v-54h-25c-31 0 -37 -6 -64 -69l-162 -376c-36 -84 -55 -113 -90 -140 c-28 -22 -61 -32 -106 -32c-79 0 -127 41 -127 108c0 49 30 83 74 83z"/><glyph unicode="&#8364;" horiz-adv-x="807" d="M51 255l21 50h50v22c0 14 0 16 1 28h-72l21 50h56c10 57 33 109 66 154c62 84 143 124 251 124c87 0 134 -17 209 -76l30 67h55v-267h-55c-14 123 -100 206 -214 206c-112 0 -198 -80 -221 -208h333l-22 -50h-317v-50h296l-21 -50h-269c26 -125 103 -195 214 -195 c118 0 205 78 228 203h66c-8 -76 -28 -129 -69 -179c-58 -70 -130 -101 -235 -101c-174 0 -298 103 -325 272h-77z"/><glyph unicode="&#185;" horiz-adv-x="373" d="M77 267v38h51c25 0 32 8 32 34v203h-83v39c60 3 95 30 102 76h52v-318c0 -28 6 -34 32 -34h49v-38h-235z"/><glyph unicode="&#178;" horiz-adv-x="374" d="M36 267c0 113 15 132 166 207c31 16 48 41 48 70c0 40 -35 67 -86 67c-41 0 -65 -13 -78 -43c6 2 9 2 17 2c22 0 39 -16 39 -37c0 -25 -20 -44 -48 -44c-33 0 -57 26 -57 62c0 60 63 108 142 108c88 0 149 -49 149 -119c0 -21 -6 -42 -17 -57c-23 -32 -45 -46 -115 -72 c-72 -26 -97 -43 -105 -72c15 10 22 12 37 12c14 0 30 -3 64 -11c43 -10 52 -12 65 -12c28 0 42 20 42 61v11v3h40c-2 -44 -2 -49 -4 -64c-5 -47 -34 -76 -79 -76c-21 0 -44 6 -76 19c-50 21 -58 23 -75 23c-16 0 -22 -7 -22 -26v-12h-47z"/><glyph unicode="&#179;" horiz-adv-x="374" d="M163 259c-81 0 -136 39 -136 96c0 32 23 55 53 55c25 0 46 -19 46 -43c0 -11 -4 -22 -13 -29c-6 -6 -6 -6 -29 -11l-3 -1h1c10 -16 39 -26 72 -26c62 0 101 32 101 82c0 43 -35 70 -92 70c-9 0 -15 -1 -27 -3v43c10 -2 14 -2 19 -2c57 0 89 24 89 67c0 34 -37 59 -85 59 c-24 0 -63 -11 -66 -19l-1 -1s0 -1 1 -1l16 -4c10 -2 22 -20 22 -32c0 -22 -24 -42 -50 -42s-47 23 -47 52c0 50 62 91 138 91c84 0 150 -43 150 -99c0 -28 -18 -60 -37 -68c-20 -8 -34 -15 -34 -16s0 -1 -1 -1v-1l5 -2c47 -19 50 -24 60 -40c10 -15 15 -32 15 -52 c0 -74 -66 -122 -167 -122z"/><glyph unicode="&#160;" horiz-adv-x="250"/><glyph unicode="&#173;" horiz-adv-x="241" d="M0 229v90h241v-90h-241z"/></font>
</defs>
</svg>
